<mxfile host="65bd71144e">
    <diagram id="TGWaLpK7UEpW5ZGfRGHc" name="Page-1">
        <mxGraphModel dx="2065" dy="1873" grid="0" gridSize="10" guides="1" tooltips="1" connect="1" arrows="1" fold="1" page="1" pageScale="1" pageWidth="850" pageHeight="1100" background="none" math="0" shadow="0">
            <root>
                <mxCell id="0"/>
                <mxCell id="1" parent="0"/>
                <mxCell id="6" style="edgeStyle=none;html=1;exitX=0.25;exitY=0;exitDx=0;exitDy=0;" parent="1" edge="1">
                    <mxGeometry relative="1" as="geometry">
                        <mxPoint x="710" y="-1040" as="targetPoint"/>
                        <mxPoint x="710" y="-1050" as="sourcePoint"/>
                    </mxGeometry>
                </mxCell>
                <mxCell id="8" value="Sinhvien" style="swimlane;fontStyle=0;childLayout=stackLayout;horizontal=1;startSize=30;horizontalStack=0;resizeParent=1;resizeParentMax=0;resizeLast=0;collapsible=1;marginBottom=0;whiteSpace=wrap;html=1;" parent="1" vertex="1">
                    <mxGeometry x="-813" y="-1090" width="196" height="390" as="geometry"/>
                </mxCell>
                <mxCell id="9" value="mssv: Varchar(10)" style="text;strokeColor=none;fillColor=none;align=left;verticalAlign=middle;spacingLeft=4;spacingRight=4;overflow=hidden;points=[[0,0.5],[1,0.5]];portConstraint=eastwest;rotatable=0;whiteSpace=wrap;html=1;" parent="8" vertex="1">
                    <mxGeometry y="30" width="196" height="30" as="geometry"/>
                </mxCell>
                <mxCell id="10" value="ho_ten: Varchar(32)" style="text;strokeColor=none;fillColor=none;align=left;verticalAlign=middle;spacingLeft=4;spacingRight=4;overflow=hidden;points=[[0,0.5],[1,0.5]];portConstraint=eastwest;rotatable=0;whiteSpace=wrap;html=1;" parent="8" vertex="1">
                    <mxGeometry y="60" width="196" height="30" as="geometry"/>
                </mxCell>
                <mxCell id="11" value="ngay_sinh: Date" style="text;strokeColor=none;fillColor=none;align=left;verticalAlign=middle;spacingLeft=4;spacingRight=4;overflow=hidden;points=[[0,0.5],[1,0.5]];portConstraint=eastwest;rotatable=0;whiteSpace=wrap;html=1;" parent="8" vertex="1">
                    <mxGeometry y="90" width="196" height="30" as="geometry"/>
                </mxCell>
                <mxCell id="13" value="gioi_tinh: Integer" style="text;strokeColor=none;fillColor=none;align=left;verticalAlign=middle;spacingLeft=4;spacingRight=4;overflow=hidden;points=[[0,0.5],[1,0.5]];portConstraint=eastwest;rotatable=0;whiteSpace=wrap;html=1;" parent="8" vertex="1">
                    <mxGeometry y="120" width="196" height="30" as="geometry"/>
                </mxCell>
                <mxCell id="20" value="que_quan: Varchar(50)" style="text;strokeColor=none;fillColor=none;align=left;verticalAlign=middle;spacingLeft=4;spacingRight=4;overflow=hidden;points=[[0,0.5],[1,0.5]];portConstraint=eastwest;rotatable=0;whiteSpace=wrap;html=1;" parent="8" vertex="1">
                    <mxGeometry y="150" width="196" height="30" as="geometry"/>
                </mxCell>
                <mxCell id="22" value="email: Varchar(50)" style="text;strokeColor=none;fillColor=none;align=left;verticalAlign=middle;spacingLeft=4;spacingRight=4;overflow=hidden;points=[[0,0.5],[1,0.5]];portConstraint=eastwest;rotatable=0;whiteSpace=wrap;html=1;" parent="8" vertex="1">
                    <mxGeometry y="180" width="196" height="30" as="geometry"/>
                </mxCell>
                <mxCell id="21" value="phone: Varchar(16)" style="text;strokeColor=none;fillColor=none;align=left;verticalAlign=middle;spacingLeft=4;spacingRight=4;overflow=hidden;points=[[0,0.5],[1,0.5]];portConstraint=eastwest;rotatable=0;whiteSpace=wrap;html=1;" parent="8" vertex="1">
                    <mxGeometry y="210" width="196" height="30" as="geometry"/>
                </mxCell>
                <mxCell id="25" value="image: Text" style="text;strokeColor=none;fillColor=none;align=left;verticalAlign=middle;spacingLeft=4;spacingRight=4;overflow=hidden;points=[[0,0.5],[1,0.5]];portConstraint=eastwest;rotatable=0;whiteSpace=wrap;html=1;" parent="8" vertex="1">
                    <mxGeometry y="240" width="196" height="30" as="geometry"/>
                </mxCell>
                <mxCell id="59" value="tinhtrang_id: Varchar(10)" style="text;strokeColor=none;fillColor=none;align=left;verticalAlign=middle;spacingLeft=4;spacingRight=4;overflow=hidden;points=[[0,0.5],[1,0.5]];portConstraint=eastwest;rotatable=0;whiteSpace=wrap;html=1;" parent="8" vertex="1">
                    <mxGeometry y="270" width="196" height="30" as="geometry"/>
                </mxCell>
                <mxCell id="23" value="khoa_hoc_id: Varchar(10)" style="text;strokeColor=none;fillColor=none;align=left;verticalAlign=middle;spacingLeft=4;spacingRight=4;overflow=hidden;points=[[0,0.5],[1,0.5]];portConstraint=eastwest;rotatable=0;whiteSpace=wrap;html=1;" parent="8" vertex="1">
                    <mxGeometry y="300" width="196" height="30" as="geometry"/>
                </mxCell>
                <mxCell id="24" value="nganh_id: Varchar(10)" style="text;strokeColor=none;fillColor=none;align=left;verticalAlign=middle;spacingLeft=4;spacingRight=4;overflow=hidden;points=[[0,0.5],[1,0.5]];portConstraint=eastwest;rotatable=0;whiteSpace=wrap;html=1;" parent="8" vertex="1">
                    <mxGeometry y="330" width="196" height="30" as="geometry"/>
                </mxCell>
                <mxCell id="26" value="lop_hoc_id: Varchar(10)" style="text;strokeColor=none;fillColor=none;align=left;verticalAlign=middle;spacingLeft=4;spacingRight=4;overflow=hidden;points=[[0,0.5],[1,0.5]];portConstraint=eastwest;rotatable=0;whiteSpace=wrap;html=1;" parent="8" vertex="1">
                    <mxGeometry y="360" width="196" height="30" as="geometry"/>
                </mxCell>
                <mxCell id="27" value="LopHoc" style="swimlane;fontStyle=0;childLayout=stackLayout;horizontal=1;startSize=30;horizontalStack=0;resizeParent=1;resizeParentMax=0;resizeLast=0;collapsible=1;marginBottom=0;whiteSpace=wrap;html=1;" parent="1" vertex="1">
                    <mxGeometry x="-584.5" y="-1090" width="181" height="210" as="geometry"/>
                </mxCell>
                <mxCell id="28" value="lop_id: Varchar(10)" style="text;strokeColor=none;fillColor=none;align=left;verticalAlign=middle;spacingLeft=4;spacingRight=4;overflow=hidden;points=[[0,0.5],[1,0.5]];portConstraint=eastwest;rotatable=0;whiteSpace=wrap;html=1;" parent="27" vertex="1">
                    <mxGeometry y="30" width="181" height="30" as="geometry"/>
                </mxCell>
                <mxCell id="29" value="ten_lop: Varchar(20)" style="text;strokeColor=none;fillColor=none;align=left;verticalAlign=middle;spacingLeft=4;spacingRight=4;overflow=hidden;points=[[0,0.5],[1,0.5]];portConstraint=eastwest;rotatable=0;whiteSpace=wrap;html=1;" parent="27" vertex="1">
                    <mxGeometry y="60" width="181" height="30" as="geometry"/>
                </mxCell>
                <mxCell id="30" value="số_sinh _viên: Integer" style="text;strokeColor=none;fillColor=none;align=left;verticalAlign=middle;spacingLeft=4;spacingRight=4;overflow=hidden;points=[[0,0.5],[1,0.5]];portConstraint=eastwest;rotatable=0;whiteSpace=wrap;html=1;" parent="27" vertex="1">
                    <mxGeometry y="90" width="181" height="30" as="geometry"/>
                </mxCell>
                <mxCell id="107" value="so_sinh_vien_max: Integer" style="text;strokeColor=none;fillColor=none;align=left;verticalAlign=middle;spacingLeft=4;spacingRight=4;overflow=hidden;points=[[0,0.5],[1,0.5]];portConstraint=eastwest;rotatable=0;whiteSpace=wrap;html=1;" parent="27" vertex="1">
                    <mxGeometry y="120" width="181" height="30" as="geometry"/>
                </mxCell>
                <mxCell id="33" value="msgv: Varchar(10)" style="text;strokeColor=none;fillColor=none;align=left;verticalAlign=middle;spacingLeft=4;spacingRight=4;overflow=hidden;points=[[0,0.5],[1,0.5]];portConstraint=eastwest;rotatable=0;whiteSpace=wrap;html=1;" parent="27" vertex="1">
                    <mxGeometry y="150" width="181" height="30" as="geometry"/>
                </mxCell>
                <mxCell id="34" value="mssv: Varchar(10)" style="text;strokeColor=none;fillColor=none;align=left;verticalAlign=middle;spacingLeft=4;spacingRight=4;overflow=hidden;points=[[0,0.5],[1,0.5]];portConstraint=eastwest;rotatable=0;whiteSpace=wrap;html=1;" parent="27" vertex="1">
                    <mxGeometry y="180" width="181" height="30" as="geometry"/>
                </mxCell>
                <mxCell id="35" value="GiaoVien" style="swimlane;fontStyle=0;childLayout=stackLayout;horizontal=1;startSize=30;horizontalStack=0;resizeParent=1;resizeParentMax=0;resizeLast=0;collapsible=1;marginBottom=0;whiteSpace=wrap;html=1;" parent="1" vertex="1">
                    <mxGeometry x="-355" y="-1090" width="140" height="270" as="geometry"/>
                </mxCell>
                <mxCell id="36" value="msgv: Varchar(10)" style="text;strokeColor=none;fillColor=none;align=left;verticalAlign=middle;spacingLeft=4;spacingRight=4;overflow=hidden;points=[[0,0.5],[1,0.5]];portConstraint=eastwest;rotatable=0;whiteSpace=wrap;html=1;" parent="35" vertex="1">
                    <mxGeometry y="30" width="140" height="30" as="geometry"/>
                </mxCell>
                <mxCell id="37" value="ho_ten: Varchar(50)" style="text;strokeColor=none;fillColor=none;align=left;verticalAlign=middle;spacingLeft=4;spacingRight=4;overflow=hidden;points=[[0,0.5],[1,0.5]];portConstraint=eastwest;rotatable=0;whiteSpace=wrap;html=1;" parent="35" vertex="1">
                    <mxGeometry y="60" width="140" height="30" as="geometry"/>
                </mxCell>
                <mxCell id="39" value="ngay_sinh: date" style="text;strokeColor=none;fillColor=none;align=left;verticalAlign=middle;spacingLeft=4;spacingRight=4;overflow=hidden;points=[[0,0.5],[1,0.5]];portConstraint=eastwest;rotatable=0;whiteSpace=wrap;html=1;" parent="35" vertex="1">
                    <mxGeometry y="90" width="140" height="30" as="geometry"/>
                </mxCell>
                <mxCell id="40" value="gioi_tinh: Integer" style="text;strokeColor=none;fillColor=none;align=left;verticalAlign=middle;spacingLeft=4;spacingRight=4;overflow=hidden;points=[[0,0.5],[1,0.5]];portConstraint=eastwest;rotatable=0;whiteSpace=wrap;html=1;" parent="35" vertex="1">
                    <mxGeometry y="120" width="140" height="30" as="geometry"/>
                </mxCell>
                <mxCell id="41" value="que_quan: Varchar(50)" style="text;strokeColor=none;fillColor=none;align=left;verticalAlign=middle;spacingLeft=4;spacingRight=4;overflow=hidden;points=[[0,0.5],[1,0.5]];portConstraint=eastwest;rotatable=0;whiteSpace=wrap;html=1;" parent="35" vertex="1">
                    <mxGeometry y="150" width="140" height="30" as="geometry"/>
                </mxCell>
                <mxCell id="43" value="email: Text" style="text;strokeColor=none;fillColor=none;align=left;verticalAlign=middle;spacingLeft=4;spacingRight=4;overflow=hidden;points=[[0,0.5],[1,0.5]];portConstraint=eastwest;rotatable=0;whiteSpace=wrap;html=1;" parent="35" vertex="1">
                    <mxGeometry y="180" width="140" height="30" as="geometry"/>
                </mxCell>
                <mxCell id="42" value="phone: Varchar(16)" style="text;strokeColor=none;fillColor=none;align=left;verticalAlign=middle;spacingLeft=4;spacingRight=4;overflow=hidden;points=[[0,0.5],[1,0.5]];portConstraint=eastwest;rotatable=0;whiteSpace=wrap;html=1;" parent="35" vertex="1">
                    <mxGeometry y="210" width="140" height="30" as="geometry"/>
                </mxCell>
                <mxCell id="44" value="khoa_id: Varchar(10)" style="text;strokeColor=none;fillColor=none;align=left;verticalAlign=middle;spacingLeft=4;spacingRight=4;overflow=hidden;points=[[0,0.5],[1,0.5]];portConstraint=eastwest;rotatable=0;whiteSpace=wrap;html=1;" parent="35" vertex="1">
                    <mxGeometry y="240" width="140" height="30" as="geometry"/>
                </mxCell>
                <mxCell id="46" value="MonHoc" style="swimlane;fontStyle=0;childLayout=stackLayout;horizontal=1;startSize=30;horizontalStack=0;resizeParent=1;resizeParentMax=0;resizeLast=0;collapsible=1;marginBottom=0;whiteSpace=wrap;html=1;" parent="1" vertex="1">
                    <mxGeometry x="-584.5" y="-858" width="166" height="180" as="geometry"/>
                </mxCell>
                <mxCell id="47" value="mon_hoc: Varchar(10)" style="text;strokeColor=none;fillColor=none;align=left;verticalAlign=middle;spacingLeft=4;spacingRight=4;overflow=hidden;points=[[0,0.5],[1,0.5]];portConstraint=eastwest;rotatable=0;whiteSpace=wrap;html=1;" parent="46" vertex="1">
                    <mxGeometry y="30" width="166" height="30" as="geometry"/>
                </mxCell>
                <mxCell id="48" value="tên môn học: Varchar(50)" style="text;strokeColor=none;fillColor=none;align=left;verticalAlign=middle;spacingLeft=4;spacingRight=4;overflow=hidden;points=[[0,0.5],[1,0.5]];portConstraint=eastwest;rotatable=0;whiteSpace=wrap;html=1;" parent="46" vertex="1">
                    <mxGeometry y="60" width="166" height="30" as="geometry"/>
                </mxCell>
                <mxCell id="49" value="so_tinh_chi: Integer" style="text;strokeColor=none;fillColor=none;align=left;verticalAlign=middle;spacingLeft=4;spacingRight=4;overflow=hidden;points=[[0,0.5],[1,0.5]];portConstraint=eastwest;rotatable=0;whiteSpace=wrap;html=1;" parent="46" vertex="1">
                    <mxGeometry y="90" width="166" height="30" as="geometry"/>
                </mxCell>
                <mxCell id="50" value="nganh_hoc_id: Varchar(10)" style="text;strokeColor=none;fillColor=none;align=left;verticalAlign=middle;spacingLeft=4;spacingRight=4;overflow=hidden;points=[[0,0.5],[1,0.5]];portConstraint=eastwest;rotatable=0;whiteSpace=wrap;html=1;" parent="46" vertex="1">
                    <mxGeometry y="120" width="166" height="30" as="geometry"/>
                </mxCell>
                <mxCell id="52" value="mo_ta: Text" style="text;strokeColor=none;fillColor=none;align=left;verticalAlign=middle;spacingLeft=4;spacingRight=4;overflow=hidden;points=[[0,0.5],[1,0.5]];portConstraint=eastwest;rotatable=0;whiteSpace=wrap;html=1;" parent="46" vertex="1">
                    <mxGeometry y="150" width="166" height="30" as="geometry"/>
                </mxCell>
                <mxCell id="53" value="Role" style="swimlane;fontStyle=0;childLayout=stackLayout;horizontal=1;startSize=30;horizontalStack=0;resizeParent=1;resizeParentMax=0;resizeLast=0;collapsible=1;marginBottom=0;whiteSpace=wrap;html=1;" parent="1" vertex="1">
                    <mxGeometry x="-810" y="-469" width="140" height="90" as="geometry"/>
                </mxCell>
                <mxCell id="54" value="role_id: Varchar(10)" style="text;strokeColor=none;fillColor=none;align=left;verticalAlign=middle;spacingLeft=4;spacingRight=4;overflow=hidden;points=[[0,0.5],[1,0.5]];portConstraint=eastwest;rotatable=0;whiteSpace=wrap;html=1;" parent="53" vertex="1">
                    <mxGeometry y="30" width="140" height="30" as="geometry"/>
                </mxCell>
                <mxCell id="55" value="ten_role: Varchar(20)" style="text;strokeColor=none;fillColor=none;align=left;verticalAlign=middle;spacingLeft=4;spacingRight=4;overflow=hidden;points=[[0,0.5],[1,0.5]];portConstraint=eastwest;rotatable=0;whiteSpace=wrap;html=1;" parent="53" vertex="1">
                    <mxGeometry y="60" width="140" height="30" as="geometry"/>
                </mxCell>
                <mxCell id="62" value="Diem" style="swimlane;fontStyle=0;childLayout=stackLayout;horizontal=1;startSize=30;horizontalStack=0;resizeParent=1;resizeParentMax=0;resizeLast=0;collapsible=1;marginBottom=0;whiteSpace=wrap;html=1;" parent="1" vertex="1">
                    <mxGeometry x="-810" y="-640" width="162" height="150" as="geometry"/>
                </mxCell>
                <mxCell id="63" value="diem_id: Varchar(10)" style="text;strokeColor=none;fillColor=none;align=left;verticalAlign=middle;spacingLeft=4;spacingRight=4;overflow=hidden;points=[[0,0.5],[1,0.5]];portConstraint=eastwest;rotatable=0;whiteSpace=wrap;html=1;" parent="62" vertex="1">
                    <mxGeometry y="30" width="162" height="30" as="geometry"/>
                </mxCell>
                <mxCell id="64" value="mon_hoc_id: Varchar(10)" style="text;strokeColor=none;fillColor=none;align=left;verticalAlign=middle;spacingLeft=4;spacingRight=4;overflow=hidden;points=[[0,0.5],[1,0.5]];portConstraint=eastwest;rotatable=0;whiteSpace=wrap;html=1;" parent="62" vertex="1">
                    <mxGeometry y="60" width="162" height="30" as="geometry"/>
                </mxCell>
                <mxCell id="66" value="diem_so: Integer" style="text;strokeColor=none;fillColor=none;align=left;verticalAlign=middle;spacingLeft=4;spacingRight=4;overflow=hidden;points=[[0,0.5],[1,0.5]];portConstraint=eastwest;rotatable=0;whiteSpace=wrap;html=1;" parent="62" vertex="1">
                    <mxGeometry y="90" width="162" height="30" as="geometry"/>
                </mxCell>
                <mxCell id="108" value="update_at: Date" style="text;strokeColor=none;fillColor=none;align=left;verticalAlign=middle;spacingLeft=4;spacingRight=4;overflow=hidden;points=[[0,0.5],[1,0.5]];portConstraint=eastwest;rotatable=0;whiteSpace=wrap;html=1;" parent="62" vertex="1">
                    <mxGeometry y="120" width="162" height="30" as="geometry"/>
                </mxCell>
                <mxCell id="68" value="GiaoVien-Lop" style="swimlane;fontStyle=0;childLayout=stackLayout;horizontal=1;startSize=30;horizontalStack=0;resizeParent=1;resizeParentMax=0;resizeLast=0;collapsible=1;marginBottom=0;whiteSpace=wrap;html=1;" parent="1" vertex="1">
                    <mxGeometry x="-584.5" y="-640" width="196" height="150" as="geometry"/>
                </mxCell>
                <mxCell id="69" value="lop_giaovien_id: Varchar(10)" style="text;strokeColor=none;fillColor=none;align=left;verticalAlign=middle;spacingLeft=4;spacingRight=4;overflow=hidden;points=[[0,0.5],[1,0.5]];portConstraint=eastwest;rotatable=0;whiteSpace=wrap;html=1;" parent="68" vertex="1">
                    <mxGeometry y="30" width="196" height="30" as="geometry"/>
                </mxCell>
                <mxCell id="70" value="msgv: Varchar(10)" style="text;strokeColor=none;fillColor=none;align=left;verticalAlign=middle;spacingLeft=4;spacingRight=4;overflow=hidden;points=[[0,0.5],[1,0.5]];portConstraint=eastwest;rotatable=0;whiteSpace=wrap;html=1;" parent="68" vertex="1">
                    <mxGeometry y="60" width="196" height="30" as="geometry"/>
                </mxCell>
                <mxCell id="71" value="lop_id: Varchar(10)" style="text;strokeColor=none;fillColor=none;align=left;verticalAlign=middle;spacingLeft=4;spacingRight=4;overflow=hidden;points=[[0,0.5],[1,0.5]];portConstraint=eastwest;rotatable=0;whiteSpace=wrap;html=1;" parent="68" vertex="1">
                    <mxGeometry y="90" width="196" height="30" as="geometry"/>
                </mxCell>
                <mxCell id="72" value="khoa_hoc_id: Varchar(10)" style="text;strokeColor=none;fillColor=none;align=left;verticalAlign=middle;spacingLeft=4;spacingRight=4;overflow=hidden;points=[[0,0.5],[1,0.5]];portConstraint=eastwest;rotatable=0;whiteSpace=wrap;html=1;" parent="68" vertex="1">
                    <mxGeometry y="120" width="196" height="30" as="geometry"/>
                </mxCell>
                <mxCell id="73" value="" style="shape=image;verticalLabelPosition=bottom;labelBackgroundColor=default;verticalAlign=top;aspect=fixed;imageAspect=0;image=data:image/png,iVBORw0KGgoAAAANSUhEUgAAAL0AAAC9CAYAAADm13wwAAAR4UlEQVR4nO3de3wTZboH8N87SVPKtZSWphRoA7TAoi4iInL7wEdF0T0syq66LHr0czjqekRdZRfWlVVRFnS9gKCr6+5Rd73gFXV1AUEEkRWOoninFJpAuTS9UC4F2rTJc/4oxbSZpDNJJtOZ9/n+Ezp5550n4Zc370wmEwGTHThwoPOxBld/KE35CIp8CMoHKN3sulgSEaqhKPuhhPYRnPuH9M85YGY5IpUbKyvz5zaJ0KUgTIHAMJDIh0CPVNbAOgiicgL2QIiPHYp4d1BB7uZUbdrQ0BOR2FleMRJBXAbCT4QQI4zeJrMqqgXEKgi8ly46rSooyKw1akuGBLCysrLrkeN0Zwh0gwD6GLENZm8EWu1QlAeMeAdIaui/JXK5fP6bieguCJGTzL6ZpAjvKk78blB/9zfJ6jIpoSciZaev6hpQ8D4hREEy+mQsTIiIXnQJ/MHjyfMl2lnCoS8tq5hKwEIInJFoX4zFQkQBIcRTohM9UJSXVxVvP3GHvnl0r3hWQFwbbx+MxYOIqhXFeXFRYc7n8awfV+hLa2q609HAq4C4OJ71GUscnSChzBxcmLtS75q6Q79jb1UfJdi0FhA/0rsuY0lGJGj24MK8J/SspOhpXOqrGqEEg//HgWcdhBAklpeWVSwjIs1Z1jzS7y6vLAo2hj6DQPf46mPMUE8Xe9w3aWmo6dWxo6qqW1Nj8F0OPOvAbtzp9Scn9ETkVOqaXhNCFCdeF2PGIaLHd3krL2mvXbuhL/X5l/NRGmYFQiAtRKEVu3dXxRygY4b+1NvFjUmtjDEjCfRoUpreKa2piToVjxr6kgNHs0GhJcZUxphxBMRgOtr4ULT7o4ZeNJx4AELwlzmYVc3yeg8Wqt2hGvqdvuqhAGYZWRFjBnMEIBar3aE+0lPjYwAcRlbEmNEEcNWuPf6xbZdHhL75kA8frWH2EAyGIkb7iNCHEHwkNeUwZjwhxLgSr39a+LJWoS/xVlzN59Uw2yFaEH5uTqvQC9B1KS+IMYMJgTN3+fyjWv4+HfodVVXdiDDJnLIYMxZBnJ7inA69qAteJoRwmVMSY8YihCJDD2CaSlvGbEFADG75sOqHkZ4wxbSKGEuBRiiXAKdCX+qtGM3nyjP7a57iKEDrST5jdkWESaU1Nd1PTW9Cw80thzHjCSFcOBoY0TLSu80uiLFUCEG4FQAQBA49k4KAyDw1vaFMc0thLDUEKFPxemsz+csiTBYEuJUAgjy1YdIgwK0oaOTQM2kIUKYihBIwuxDGUoaEQ9e1LBmzAw49kw6HnkmHQ8+kw6Fn0uHQM+lw6Jl0OPRMOhx6Jh0OPZMOh55Jh0PPpMOhZ9Jxml2AkY4fP47169Zg7fursMfnRW3tIdQeOoSGhnqzS+tQevTIRM+sLPTKzsG5o0ZjymVTMXToMLPLMozY5fOPCRFtNruQZPL7K/DIgwvx1srXzC7Fsjyegbjplttw+RVXml1KchHW2Sr0dXV1eObp5Xj2r0+jvv6k2eXYwplnDcdd8xfgnJGj2m9sBYR1tpnT19YewsyrL8efly/hwCfR119tx8yrL8fKN181u5SksUXod+8uxfSpF+O7b782uxRbCgaDmHvnrXj04UUgIrPLSZjlQ++vOIjrZl6JffvKzS7F9p56YimWL7X+rzNZOvR1x45h1vUz4K84aHYp0li29GG88doKs8tIiKVDv/Sxh1Cy43uzy5DOvfPnobqqyuwy4mbZ0O/bV44VL/3D7DKk1NBQj8eX/MnsMuJm2dA/uexR/pDJRCte+jv27vGZXUZcLBn6QCCA1aveNbsM6b298nWzS4iLJU9D2PLJx6g7dkzXOrnpnXG5eyAaQyG87S9DdSD6sfw++X1x/tgJAIBNG9ajsrIiattCz0BcOHkKAoEA1q55DwcP7NdVl5V9tHE9Zt8+x+wydLNk6D9Yu0ZX+6v6FOO5H1+ETo7mh/tA/XFM3roSXx+riWg7ZuwEPPjIcmR07gwAuOXWObjj1hvxxeefRrSddMFkLPrT43A6m/udcc31uH7mz6QJ/pfbP8fBA/uR1yff7FJ0seT0ZveuUs1tM9PS8XxY4AHA3akL/nLWBRFt09PTsWDRI6cDDwDdunfH/YsfhaK0fqo6ZWTgD/ctPh14AMjOzsG839+n56FYXmlpidkl6GbJ0O/X8UHU8O45SHdEvqGNynTDpThaLSsePBSZmT0j2rrdeehf4Gm1bMCAQejWPfK36c4bPVZzbXZgxUOXlgx9VVWl5rYH64+rLj/S2IBAKNhq2YEo05JQKITDh2s11VBZ6ddcmx3o+b/oKCwX+qamJgQCDZrblxyvxb8qvRHLl/q2Ryyrqa7C+6vfi1i+8o1XcLj2UKtlVZV+rFE5grTkkUWaa7OD48frzC5BN0vuyOp11bZVmDNwBMZl9YFTKPiguhwLSyN3TAHgvvm/xeHDtRg4sAgA8P1332D50odV2y64Zx583t0YPmIknE4nVr7+Ctav07eTzVJPitDXBRtx786tmto2NDTgoT/eq61tfT2eeWpZApUxM1huesNYojj0TDoceiYdDj2TDoeeSYdDz6TDoWfS4dAz6Ujx4VSLHj0yce31/40zzhpudikdxskTJ7Dipb9jy783mV1KykgT+p9e8XPcdsc8dO/ew+xSOpxxEyZh86YNWHjf3TG/MGMXUkxvLrhoCubfu4gDH8PY8ROx5IlnzC4jJaQI/a9m/9rsEiyhePBQTJ7yE7PLMJztQ9+vfwEKCweYXYZljJ8wyewSDGf70PfOdZtdgqXI8HzZPvTprnSzS7AUGZ4v24eesbY49Ew6HHomHQ49kw6HnknH9qGPdi0bpk6G58v2ofd5d8PnKzO7DMvY8OFas0swnO1DDwB/XvaY2SVYws6S7/G+BJdAlyL0H6xdhSeXPWp2GR3a3j0+/Hr2DWaXkRLSnFr8v888iS+3b8O0K66U4qN2rZoaG/HF55/h5Rees+Ql+uIhTegBYNunW7HtU21XOmP2JcX0hrFwHHomHQ49kw6HnklHqh3ZXv0mYsj4xeiZd17cfYSCjdjz1dMo/WQBAie1/fRM3/FzkT/2N3B17gUKnRppCBBtbhUACEVZ3vJ3CBCi+VYBQG3vD2uniPb7awocx+6vluH7bX9EU6O+X2y0KilGeqGkYfilL+D8Kz9MKPAAoDjS4Dn7Fkz6r11wF02P2bZz7pkYcXspCi5ajLTOvVSD3vYWKsspWnvE6E9E3054f2nOLhgyYh4unbETvfPt/1VBQJLQDxo1D32H/jKpfaald8fZl76AzpkDo7YZ8ovXkZE1KDLQMQIJRN7fMqK3DTrU1tfwAlDrr1OGG2Mnv440V2a8T4ll2D70isMFz4jbDenb4eyEwh/frHpfr2HTkZFVHDWAaLscKiM6Yoz0onW7aP1B5QUW7Z3DlZ4FT/E1iT0pFmD70HfLPhOujCzD+s8uuFB1eY/CiVEDBjT/u90RX2W5an8EiGj7CO1MedqO+Ln56o/HTmwfeldGjqH9p3fOVV/eox8AfXP3uG/DRH2BxHqBhd1mZKg/HjuxfeiNRqcT3GZ5y2/UxjHnjhiBY0yJAG0vDM0vAAlw6A2idaRWm3PrnfKozfG1tIt1VMjOOPRGiWNqkfQRHTH6i/EOY3cceiNF2VnUGkDNR3l0vDOc7i/WiG9zHHoDhQcv0RG4VZBFjP4Q+4WgepSnTX92x6E3iN45N1TatTuiq22npT+V7VH4dsK2F7GTa3MceqPoOIqi2h6nzp1pJ/BRPwdQG9Fj1BVRj41x6I2kde6tY6dU663a9lveAGQOPMChN1Q8c+5ogYw5h9fwjqD1KI+QIPgceoPoOlrTTrtEjtbo3Z4MOPRGaWdEjWtKk8QRvd2pkY1x6A0Sz5w75noxdnrjnvtDpT8+esPiFT5gah2hEbZc74gf77k6akd57I5DbxAj5tzU3hRH4wsqfF9BtV6b49AbJRlz7vbeIdob8dv21+ZW7bg9n3vD4paUObeGnc5EbqN9U8vubB/6Y9Vfgwwcvo5WblddXuf/qtWImsw5d0Rg2+tPwz5FS3+Har6I85mwDsuF3ul0Ijtb+7eh6uv2o6b8Q8Pq2b/jJdXlFd+82P5Ij9hz7vCdSj07tVrm+NH6KfOqP55o8vL66GrfEVgu9ACQndNbV/vvNt6JYOPJpNdRvXc9Dux4WfW+k7W7sOeTxZrn3NFGdM1THmh7B4m1D+H1roDfv0nXc6D3/6IjsGToCwo9utofrdyOT9/+KQInDyWthpryDdj2znRQqClqm10f/g57tj4cd5CjzrkNmPP7vK9g48Zf6H4eCgr0/V90BGKXzz8mRLTZ7EL0ePnF53HP3XN1r5fWKQvuoiuQ0bVv3NsmCuKw/zNUeVej1fwjhm65w9GrcDKcaZ1/CDSiBLjt8tMbbmc5orwQ1JaHTYmCwQAq/R/B7/9Y02MJ17t3LjZt2Q5hpU+0COssGXq/vwITzj/b0B1U1r6rZ1yLBQsfMrsMfQjrLDm9yc11Y/SYcWaXIb2p02Jf1rCjsmToAWD2bXPMLkFq4ydMwshzE7suqFksG/qR556HCy+6xOwypDX3rnvMLiFulg09APxm3nz0zOpldhnSufa6WSgePMTsMuJm6dB7BgzEU888j7S0NLNLkcaYcRNw1/wFZpeREEuHHgDOHjESix5aYnYZUjh7xEgsf/JvUBRrx8ba1Z8yddp0vPTq2zzVMdDUadPxj5ffRNdu3cwuJWG2CD3QvGP76hvv4pyRo8wuxVa6dOmCOXPvxsOPPQGXy2V2OUlhm9ADzacnvPzaO1iy/C/o26+/2eVYmtPpxIyZ1+GDjVtxw023mF1OUlnyE1mtvv3mK2z9ZDM++3Qr9u/fh9raQ6g9dAgNDfVml9ahZGb2RM+eWcjKzsbQocNw3ugxOHfUaGT1yja7tOSz6mkIjMXNqqchMJYIDj2TDoeeSYdDz6TDoWfS4dAz6XDomXQ49Ew6HHomHQ49kw6HnkmHQ8+kw6Fn0uHQM+koDgodMLsIxlJG0H4FcFeYXQdjqaNUKB6PqAfhiNmlMJYKAlTR/LNDgni0Z1IIAc2hFwCHnklBOT3SQ3DomRRCSOORnsnFBUfLSI8tZhfDmNEIVOLx9DzcHPqujveIKGB2UYwZSUB5Czj1ieyQnJxjQsC4351krAMQoB9Cf8oKk2phzHiE0iKPewsQFvpQV+cbPMVhtiXEmy3/PB16nuIwO2uZ2gARZ1kqb7VtzJjVEVDRMrUB2oS+2JP7FBG+Tn1ZjBlJ/Cr8r4jz6R1C+W3qimHMWAT8e7Ant9UMJiL0gzy9VwO0MXVlMWYcBfT7yGVqDRUloiFj1kNrijx5G9ouVQ39oILczQS8bXhNjBlIKLhTbXnU78g6XGmzQag0riTGjCQeLCrI+1b1nlirleytHI+m0AdCgH+dmFkH0UdFHvdEIQSp3R3zagiD+/fepAjw0RxmHUR7RQZ+Fi3wQDsjfYud3ooXAcxIWmGMGYJOCOEYV1TY+4tYrTRd9ybDmTuLQDuSUxhjhvmf9gIPaAx9v37iZBo5p/FVE1gH9nSxJ+85LQ01X+FswICcEghlIgG+eKtizAhE+GtRYe7NWttrmtOHKy8/knWi6eQ/BTBG77qMJRMRBRRF3FxU6P6bnvV0h/7UxtJKvf5nIfDLeNZnLFEEHBTA5cUe91a968YV+hY7yypmQ+AxAI5E+mFMDwK+dEG5xOPpHddVPBIKPQCU7jk4jIJiCQQuTLQvxmKjWhLKwqaC3suGCRH3t/wSDn2Lkj0VF4gglkDgjGT1yRjQPHeHEE90UjrdX1CQWZtof0kLPQAQkVLqq/hPQNwPID+ZfTMpEQGvukDzPJ48X7I6TWroW5SXU8bJoP8OItwsgD5GbIPZG4FWOx3O+QP753yW7L4NCX0LIhJl5dXnNAWb/kNATAUw3MjtMQsjHCGBNYoQ77hE+r+SMY2JxtDQt1VSXp2vNAWnhhCaKgiTIER6KrfPOhYCvAJ4hxT8s7h/7kdCiMZUbDeloW+rrMyfG3SEshFyZpMIZYOQDUHZRMSnMtuIAnEEJKqFIqqDSrCaQqIaXRzVQ3JyjplRz/8Dan0FDOABy/sAAAAASUVORK5CYII=;" parent="1" vertex="1">
                    <mxGeometry x="-820" y="-210" width="89" height="89" as="geometry"/>
                </mxCell>
                <mxCell id="75" value="" style="shape=image;verticalLabelPosition=bottom;labelBackgroundColor=default;verticalAlign=top;aspect=fixed;imageAspect=0;image=data:image/png,iVBORw0KGgoAAAANSUhEUgAAAOIAAADfCAIAAABklpjzAAAgAElEQVR4nOy9ebglVXkv/HvftWrY85l6nqCZZDASCEaN4JCgxihxBpUniV4xmqj5Eq5e/bzm8UmiJqifmqg3YswgThj0UW+MGGNQUBIVFRWZaW26m57OtOeqWsP7/bH23ud09znIMTR0y/mxn+qi9j611171q3deb5GIYBWrOLbBD/cAVrGKn41Vmq7iOMAqTVdxHGCVpqs4DrBK01UcB1il6SqOA6zSdBXHAVZpuorjAKs0XcVxgFWaruI4wCpNV3EcYJWmqzgOsErTVRwHWKXpKo4DrNJ0FccBVmm6iuMAqzRdxXGAVZqu4jjAKk1XcRxglaarOA6wStNVHAdYpekqjgOs0nQVxwH0wz2AYwUPV78CInpYvvf4wqo0XcVxgFWaruI4wKrS/xk42sbAqtJ/IHjE0fRY65m10vE8Mmm9StMBlrv8xxqtH5k0XbVNV3Ec4BEnTVeOo30nH1vS+tgEHWtKbaXwKxz+Sn+u90sfX6nuPdq6ernz8y+EjbCq9FdxHGBV6f+cWKlUfkR6Pg8afmFpuhyNVurpP1hYbjzLfe3DNc5jE7+wNF0OIktf5pVe/QfLpF+epg/OOH8x8AtL0+Vdw0fkdT7O8QtL06ON1ezRQ4lHHE0fLim7UiNhVRssxjEXN11uPMseXyam5pcLeK4wBudXGJhdbpxKrex7lxe+K3OtmH4RXLFHmjTlY+yu/DlAj8DE1SONpgCOsau8bOBsqaO06ukfnzjaRsuxZhQth2XH+QtB60ccTUUEy4Qkjyk8WOmAXwyeHvc0XSlWSlNZoYlwfLkmxwsecTSFHB/VNksLR3mEFgsd/zRdRtsdJtU8gQ/9XDjif5bsE2FgudjWUt+7wuNHvsEPSHwHf39hK0KAB/iI7S+CdH/Y4qbLm/wL0+o9eCg8jHHGGK11HGvnpNvtlkqlOFLGuMNO6EUAREl0cHpmzdQkAOel0+s2qtUstwQOEkkItEj/L2bi6GCIOT7E8mtxoHMxZcOgeBnBkmV5FGljbKmUKIVer+j3s8nJurM+/LjRfRt2wmQqpZxzRVGUSiVrrdbHqNg65lSItT7PTZ6bEUe9h7VeRMrlNI71zMxct9tN0zSK1MzsPIMYRETMTLSwI8Caqcmbf/DDTrfnIVprAXQ0uAyBiGEbLqPQEi/PCx94CF6jsf0cPl4cx1GkqtVkbq7pPXq9/uRkff/+GVoGzKyU6vV6SqlSqZRlmbW22Wz+ty/gUcExR1OteXTfi6AorLWWmYMQbbe7k5PjtVo1jnW73a1UKsudp9/P9u7bf/ZjfskY0+v1ymna6fVWmAl6qLGYrEdC7jfg65zLc2stpqYa+/dPT0429u6dbjQaIyWzeEdEoigCoLXetWsXAO99kiRpmj5Yv+XBxTEn5EUQxzrsGGMBRJEmQrPZvu6663bu3Hn22Wefc845tVqlKIooigacJogI0cCGIaJyKQWwa/eeLZs3ZcZY771faeIzjOf4WKdfKmkA3uPAgblGo0GE8fHxNFXeLUFvInLOAbjhhhvuuOOOpz3taSeffPKuXbu2bNnyoAzmQccxZ5vmhU2SCIC1npmD3u92+69//euvv/76drutlHrPe95z4YUXlstpnps0joBD/IRw3vl2p16rAti3/8DE1GSr1ZoYH5+enmvUGgAv1qpBgC0+cojOtSvwn34O0CIJf6QpPDiyaKrUMoIlWJVzc51qtcqMdrtbrVbyPK9WkiU/75x7y1vecs0114yNjd16661/+qd/+oY3vGF+fn5sbOy/9XuODo45mjoPpch7FEWRpjGATqd3zz33vPCFL5ycnHTOTU9Pb968+YILLuh2u3Ecu8IA8Fik0QAAOon3799/+eWX/9Kjz7IinU6nXC7Pz7V+UWlqjBWRcjn6wQ9ufe9733vKKafs2rVr06aNM9MHAB9k9mLJbYy5+eab5+bmJiYmtNa33XbbT3/60yRZmtMPO445pa9UmNCFOQ22abPZXL9+fRRFJ5100vz8fKvV2rFjx6mnnjpz8CCC23Gop1+qVu66665zHvOYHTt3bti0MUmSLMsajcZKgksPEULMASOXbhFZR07eCGqZkyilRGT37v3Pf/7zmVlEnHO33norkyxJ0ziO77vvvsnJSWutc27fvn1FUazS9IGi38/jOA5ee1HYKNKNRr1SedQFF1xwxx135HnebDb/6q/+6uKLL07TuNfLKqUUCLYpAMgwa+QgiumFL7p4+7Ztt91910nbt4tIHHGRr4ynR1XbCC1Lu5XCGNNut88666wzzjjj+uu/PoosiceSASkAr371qz/72c+eeuqpt91229vf/vZSqfQgjeXBx0Oh9GdnZycmJgAE06fT6Silgqd5pB/Kaunj3W736quvvvPOO5/0pCc9/elPT5Ko38+VUiyYn58fmxhXSu3Zs2fLlk1e0Ov1S5VSq91J0/SSSy75wuc/943//M9fPe+8mdlmtVxVSlkvaUJz8z0ASakEQEXkPZzz3nsh8AAQs4xx4tyKJkGpJQgphPB1ixEkqyK21opzzBzHsVJwDrYwmlEuR9ZCBFrj3nvv27ZtY577PXv2nHzSSc++6KLPfvYaa73W3G53y+VSErOI5HkuIkoprbWIeO+ZudvtfvrTn77pppsuvPDCZz3rWUmSeO+PZHOAMSZcsizLwnmKogiR1xDDZuZOp1OtVgHMzMxMTk6uaH7uH0edpt1ut1KptFqter1ujMnzvFqt5nkefjOOYKQayoHRuMIOM5yTPM/TNGUeRFKjSHnjrbX9PEvTNE1j54QVHTw4k1bKpVJJRGZnZ//nG17/iU984vvf//6Zp58+N9tuNGrNdk8pVasl8/O9xlh5vtmP04SImIlDJHboleXZ0tL3QVlkIoQoOTxINqQpaKj6nYf3EAERUo0sc0missw2m8116yb3759xzp1wwgkXXnjhVVddVavV4picg/coirxaSUSkKAoR0VoHn9R73+12G40GgKIo4jgOVypN0xAwOXLMwe5i5lqtBmCUFAgyqNfrASiXyyIyMzMzNTW1osn52bN3tGna7/dDhgNAuJWdczzy4Y9Alpuwcxh95+fnG41GuZwWhc3znJlDyoQFcRIZO8hRdbvdOElKpfTAzMyaqclWu1OrVQFc/OIXf/bTn77+m/913rnnRRG6faeUSmLMzfea7fbmzes6vSLEvUXEemeMMcY45zauXbPkOB+UlahC6PbzUcL2kJxT2PfivQ+CMI3jKGJysm/fvrVr16apcg5FYe+9997zzjvvnHPOufbaa+NYMWPfvplarVapxADEwzkT5j+E9EPcNEwXAKWU977ZbIrI2rVrlxv/SEBOT09baycmJuI47vV6aZqOqH/w4MGxsbGjYeA+FEo/y7I0TYMEzbIsjuN+vx/uvPCBxTtRHC93njw3zrk4jrU+xDs2hY0SbYzL87xaLTdbnXq9mhnbbrfL5bLWWmnlRS699NJrPv2Zm7//g0qltnb9ul6vl2XZ5k1rPNDrO+sdjzQ9h8FARDrzrSUHs6QSvx8saSQIoT7WWJKmkYIx4owNCjrc1iLirRmrl/p9u3Pnzkc96qSf/nTP9hNP/K1nPevjH/94qVQiQrPZmpysWwvnvNas1WBijxTnzjnnXHgrHk57GOeRAjXsHHaeoCr7/X5RFEE2i0i/30+SZKXzc/94KGhqre10OjfffPMnP/nJPM+vuOKKxXdtGMBoGHlhl6RvpVIC4JyE0LQxRimVJFHey3u93vjkeJ4XvV7PGFMql/M8rzbqSikimp6ertSqSZK0Wq0/et0ff/Ljn7z11ttPOXUbgH7mnXNJKRJBmNUQCg9qfqD3l/G4VprQckudRwieBsUjIwxOLIP2T87DWwSyaoY4n8Y8N9eemKh997s/fOITn3jRRRd96lMf6/WKUimemZkfHx9TCnff/dNTTjnh4MG5SjllxiiTDCDsBDIF0ytIViLq9XqlUmlJ+6Tf70dR5JxLkqQoCgBxHOd5/ulPf/qrX/3q6aeffumll27YsMF7r7UOgmllE3S/OOo0DWb1j370oxe+8IVjY2P1en3Hjh3f+ta3DjOxF4Zx6ByNDnc63VqtEo7keaG1DjKVBEVusiLXWpfL6Z49ezdu2tBudyu1ysHpmVKpVK2U271eu92emprSSv2Pl73yqo9+7IYbv3nKKafUatWDB6d7WXb77bfffucdwXTOsiw3hbWDuyXVS0v3lWaPlpxnISBSh9NUAGBuZrZarTYajWq1OlZvbNy48eSTT96yaVO1rA/un123buKGG/7rSRdc8CvnnXf99denqep2i6DlW63+rl27zjzz1F279m3Zsj7r51rzyBNYjFGtibXWex9SesYYLCVNg3TMsiy4dAD27dv313/911/4whempqY6nc727ds/8pGP1Gq1B91/wkNAU+dcu91+05vetHv37nq9vmfPnjiOu91uMLoDFgvUXj9ffHC0Y60NBn6/3xeROI69971erxQntVrNid+9e3cURcz8issue8c73rZz954tmzft3nPfhg0bmu1WrVbTzDOzzamJxqte9UdXffxj73//+9/5znfeeeed8B7eIx1YVEQEXihkWS68v/zK1aWxpC0uBCtHGAMCjOx4Y1EUg1CqUlEcb9644XnPec7jH//4Sy655LLLLvvAB94LYN++mWq1WqkkRJiebk5NNYpCOp3OZz5zzete+4dxrJMkCcHUoLWVUsEkZeY0TZMkCbeo975ery/Mw6KdMP/e+0qlMj097b0//fTT2+12mqYTExPNZnPfvn1XXnnlOeecQ0QHDhy4HzP358BRj5saY+r1+oknnvjjH//YWpskSafTed7znhecwcM0/iLzjEXcaAv4KEryvF8UlkiUigAvQiKiWbVarYmJCRWxM77Znv+TP77cQf7yHW+fnpndvGljYaxSqtPp1Gq1Vqv1l+9858ev/pQQXfbylz3zt5/zwhdfcvrpp5955plr1q0NYTKtNRSIIALygMeSS4gfrICU40My7iOxmig4gARMMIXs3r37lltu2bFjx2eu+fTf/J8P/vUHP2CtSauV//r2988555fXrp/MMjff7moVTU01ms1ukiRf/OK//P7v//673nVFqClhZgxDUUqp2dnZ8fFxIup2u+FI8NVCQQWG7ByRtSiKMIHh/imXy0VRfOpTnwKwf//+UGZVq9WC1zE+Pr6iyfnZkGVQFMXs7OzBgweDb+6c896HaqMQeAsxjvDJTqdTLIN+VniRAwdnzjn3vKf++oXnnHveRb/9XC/ivDgv1g1exvrwOuL44OVl6VeW+9m5TruTG5FWO2v3i8987oul2thr/p/LMycHm80D8/N9577/4x8/9RnPAGuo6Dm/87L/+/Vv7Jxvz1ppihws3I6Z+fu62f7MzDppibREZp0cyO3ebjZvpFkcrde8kRkrB93Ca8YOXk2ReZEDuZ3z0hFpihzI7ayTWSu7mp3/uOm7F1/2SlUfg4oe/+u/ce31NzRzM9PrtvpF7rwVed8HPgjw3//DPxmR+U5/vtO3Il6k1ze9vvEizoqz4p14J+IWJtQ5sW5wdZxfmGfrpDCunxV5YcPl++nOXV/7+g1PeMITNm/efO65577//e+fnZ0dUWI5XoWognMuy7KRbgzeS/hAMLdmZmZCOGKgAX6m0g+fDpq6XC4TUbvd9t4Hz67VaolI2F/6z4EDB6bXrp266657brvttmq1etppp23YsGGZeNSyKIqlx6ljAuA9iDAz05yYaDDjc1/410svfekrXvGKd737ijzPL7vssk9/4hP1iYm/+Mu/ev4lL9GlhEHWu0gpRehldmZu+o7b7sxN1u9m/bznrYAlUrFSRBYgD+GjtHXEQp7k8G233fNw3kq5Wtq8ccv6jeu2bNo6Xk2bvUwplWW9qUYDwP/52w+9593v2vfTn/76bz7zyiv/tlIup1H8l29/21++7W3XfvnL5z/pKc6jlEaDGHDuteYoOItDZUAhVRs+sagM9zAEGyeYOqNIS7vdnZud3rdvHzOfdNJJExMTIhJqWONlIjYj4yfEa/v9vjGmUqmMtE2wmIMTNrKel6Vpp9OJ4ziO4xCZBzA/P1+pVIgo/KUxJhQpFkUxNze3Zs3S8UVjfa/XI6JGo5bnJlQ/NZvtUCp6pFNPtGCHLH53OSXb7nazLFu3YT0AZijGzGwLwM03f//1b/xfW7du/eLnPgfgA1de+bKX/Z4H9s61StWKONx59x3XffVrX/7Ktd/9zvd8cxYqBhwcALeIRqG+f8nFGw/edkkSRynII7eD/ViVq421a6cuefGLnv3sZz/q1FMIaDWbjUajyPKP/uM/vP5PLocx73rfe5RS//OP/+Tqq69+zrOf3e5001LFOY/QdsUPbBWllC0KAIwFA5QEQqK1FvKjg1gUigrWrbWWiBZsg0MvR7/fZ+b7CZ2OHKx2u12r1YwxweTAMHAZLrpzLlgXgzEsR9PRgEIMIs/zEJZP07TdbotIsMoBLOlFLgxrdn5iYuwnP9k5NTUVXPW5uWapVArVTzgi2zRyoJc7vhgeEIH3yIq8XE6Y0O5k3vtavTwz13z0ox9NRL/y2PPe9a53bdq0SURUEu/eP3P1Zz975Yc+vO/2W8F6cvsJlXI1L7KtW7ZFsS6l5SSNtYoE3hrnxQnI0yGrjh7ELYvQaLHLodusnyvNznrrTNbPDxzcPz/XjBS3203T76aVyute89pXv/rVpSSy1o5XKgS8+g/+8Jprrsmz3hVXXPHaV736Jzt3nrht23yz470E6kRKE0EpEMEWgkNoOvxmtTDVi+c85MAG0+4R0qpElGe9xcmawKogv+6HFRjmfRYupfftdjuo5WBkWmvL5fLgtPev9J1zSqksywCkaXpYPGyUIrufMxjrmTlIb2NMkkQh43zYxxZISYcTNOw4t/Q4d+/efeL2LTvvvW98fLxULbVanfFG9Zvf+s5Tn/zkSq12xRVXvPz3fqfTz51zc3Nzb/2Lt139jx/F+PiGTVvWr1+7du36UinpdHozMwdrtUZwywBPpJjBrIXFCvxRU/oMz555KSk7NjYh4qz1zNA67nRa7XZXKVIsc9MzAH70w5ul2XzJK3//ta997WmnnNRtd9I4+v73v/+Mpz3d9/v/9rX/eNITzz8wM10p1yqlhAHrYIxNU81hkdlwAgNBFyi46Pgh19G4sDRlZK05JyISDS9loAoAEQkO65LXyznX6XSIqFarBafNWmutrVarYWe0QqvX6y2EHZajaZ7nSZIEyRzcw71791533XW33nrr4x73uKc85SmVSqXb7YZ8w969e5dL40Zx3Gp16vVqqMaPYx3syKCJjlT6HmrJ48shSdW9u/Zu3bLBA3v2Hphau+bLX/7yCy+6qL527U033eSc27hlkzH2n6766OWv+aPS5NSJpz2qNj5RLle9t0QqTWOtY+8ts3bOWOudM2EdALMmBXOUaao801I0jaLE2qLfz5lRKlWcM0Vh0ziaHK//ZMfdcRynUbx///4f3PgNRNEb3/y///frLy+cP3DgQKWUXnDBBfv37nvHO95x6UteqpTudDpwvlqtxnFcFAW8xHFMi/JJi2Wq9W5xRdXiuGlRFCG8qrXyXgYCFT4YgUVRENH9q1YMy49EJMuydrv9L//yL7fffvtFF110xhlnTExMBAYHgzDLMq31z7BNg1kwksx5nr/5zW/+8Y9/nGVZrVZ7wQte8NKXvjQEerTW95NycB7M8B4hTao1j1g7/KJD6OhBS0lT0XrpcLr1AkWdTm96evqkE7d+4V+vffGLX3zaox513fU3OO/TNL7j7nte8YpX3PLtb3O1/tQLn+ZUpOJE69g5k2VFUWSBlOVydUBNEhHy3noPKxY6EjpaVimJV8IsS7zrnARpqhQlScmY3Dkpl9P52QONarVWq9ngBVtz991333H7rWun1nzkyg8/+fwn5MYS0XOefdENN9zwD3//9y950QtGDpJ3yLKcmdM0ciYofSwiKzDwn5Yo/GMOOm2gCYMoVYq9G3g5wSwMzhMRLRdXZuZbbrnlrLPOAvCqV73qlltu2bZt2969ey+55JJXvvKVoY4i0Ml775wLvF+Wpq1Wi4jK5XKIqO3evfv5z3/+WWedRUQ7duyoVConnHBCkNhxHIezL3meLDchq1av12dmZtI0XbQib4mk6HLSNCToDoMQVKyNMSeffMrb3/ZnX/3a9b/1tKf9xjOf+aG/+3BjbKLZad92223P+vULVa12zq+ce999+xqTk1tPOjUzlojCSEJ+NYS7RxGT0VaAKD26lcIsSy+kDwZfiM4QUZBV9Xp1/57d27Zu3rNnTxpF69atO7B//8GDBzvN+W67M7N/719/4AO//axnJ0lSS6OLX3rpv33p2r//yEee+YzfjOP4qquu+sq1X9Zax3G8b9++Rq0OQC3iIgkAYa1GZdRYRNZwrZVSwegMlYFRFJkiGy1VHS1YDVp7yd/b7/fXr18fsn0HDx5MkiSIwn379n3lK18ZWbRBmQc1jvsJ74erqJQK5kK1Wq1Wq6H6K47jsbGxDRs2hIhppVIplUrLZmVogXYbNmwYHR59/rAIv4daMiDCzCFkGyYuTdMoivI8b/c6vaz///3VO6Dpyg99+ITTH3XVJz5ZKyce+Nzn/+/lr3ttsnbthRdeyMzl+ti3vvPd2V6xecvWycnJvDD9fl8ppaPYWsuKQEQExYfE4WXJZPyDB1qmOMALvPMgDjyJkxRAlhXrN2w6OD1bKldr1fLuvXt/cvc9SqkTT9wO5+9U6nUvf0Xv/e9/1WUv61u58sMfee5znnPpC194z+7dV1999f97+eWv/ZPLg5G2edtWk+VAsEqHap1ouEhnCaU/WsJ/uJSlJQr/RvUDR8I5FypdnHMzMzPW2lKp5JybmpoK1Fx8qk6nE8zTZWkax3GIgTnnKpVKpVJ54hOfeNNNN919990nnnjic57znIsuumhUSHs/6xMC+47U40vGTf2RiyCHyHIXx4oJzsM5YSYiGC/GmVISv+Z1rz33zDMRxbffc1ev349Kyfs/8Ld/9hd/Ho+NP/8FL5ienpltzm/duvUx5/7yffumg2AIgYuQdgqhliO/lASEpbNQDwqEgJW0tBIgM4WKtFLKWE+sx6cmw50GJb/xtKffdNNNb/zDPzTW/o+Xv7xSTv75mmueesH5J23evGn79r+76qqn/caF69ZM9HObJqFwaqmSl2UQXNghdxePaYno1f1jz549QaC+9a1vvemmm0qlUp7nr3zlK+v1+qj49bCw68/w9Bd3wuh2u1/72tfa7faGDRvOPvvsRqMRJOIoWbzkGYxdcJUO+8wS/hPBCy/ZMEdE0jSx1o0sayJSihVjz4F9H/zg3777bW+7/qbvrt+4Yf2aNZ/70rW/89znnfq4J2zcsqXVbm/cuDlOkz179kytXb/nvn31ej04E6EsMNxmSzb8IIDsz+zf8/NDANEPrBnPENbaOFLM7I01xhA8MzNJo1rbfe+uU0899ZYf/uAH11//7is//IrffbEDdty14ykXnH/qKadcd911saL79h+sV2tRFKlFFF1woRjkZUnbdKT9DjvubHHkQSzP17m5ucnJyWAeTE9P33zzzbOzs2efffbWrVvTNA2l2SFiUBTFKCb1gEpPrLXtdnt8fDxUfwEIZlOn0wnSqNPpLFcUMzr7aK1SwMh2OcQwJQjUkryIIhZBv5+LSKWSiiDPjYpUq9W66547n/L4X3vPhz502ctfPtPp3PS97z//wqdvfszZpzzqtInJqenZOaWUipJms5mWKqOFFnmeY1jhMbqJD8OxSdNBKVOREVEpTgCYIlPEseY8z6cmJr/zne/cc9N3PvWlLz323HNSrf79y9f+zktecsW73/3yl788SRJ4YSZXWIxE4Ej1k5AXGqqPxZzTWmHJ6LUc/uEH8hOCUBhRvyiKUJEc9FvQdcEeCLbp/dE0y7Jg/5XL5VarFf6gXC6HDMHiYd1PudCoN/5hsnNx6HSBu6Hcc6nfa62Eb4ljxUC3X/R6PdZcq9U2bt6w7cSTbvzmN0PbiG3bT6qNjZ9/wZNn5udL1Vqt0dizd19h/fr166enp6ulMsEHL3KU0xuV7S0Bd3RpuqLCVQE7CADvPQuYWXGolS6cseONsZmZmUopSZLku9+5ae+tt+6cnZ2oRKawz33uc7/+9a/v2b270ahnWd7tdifGxjGs9BlYmQDocGk6usrLSdPFvf0fiN7v9Xpa61AgHxzZ0flbrVboEhAiXwBG7y47R4GLYUEWgHq9XiqVqtVq4HvwhY0x/X4/BP+XKzWgYR/uw8pyQ/Xc8CXeS1gud+jxhVf4JYGjnV7unGs0GrVa7T3ve297+uAXvvCFfQcPRFH0P9/wetNslyrlr3/jG42xMe/9jp/ujNPy+OREXhitNfHAxgpF0+GuvZ971RPcUXut+A4gr5SyznvvoZiICuOMMWAdxens/Fy1WhVSURTlpqCJiRddcnHhQEQf+MAHUBTve9/7ms1WkiQTExM0RLDymcOicyx22xdjNITDxM2i8/Bhn1wSo9BQKALsdrv33XcfgFGKNdRoh6qukcpdVpqOVhLOzs4ycxC/URSNFH0wIAKzgupc8jyjdZOH/bwwgsMOeoKjpT39KNJZlpdLiXUyNzc3Pj4eK9q5e89pJ57wB6//k7/487fHSv37DTc856JnXfjs587Mze4/OGu8O/GkUxrjE61Oj1gppYihvVdD5zSUfcmwBHOJwQMGh6/8fBBBgmhpZ3JpeLAhcl4YpLWGeG+sYo4ilUaxMSbrd0nwXzfeuH379vn52T0/+tH7/+7K3730xa1m+73vfe87//zP7969e2pyMo1UXiwsJuGh0icsq/SXsj4R/mTh5zwwvb9nz55169ZprfM8t9ZWKpX5+fl6vR6cnG63W9HxP4MAACAASURBVK1Ww0UZZT2XnaIQ2QIwMTERIvxRFAUbIiw2CGXezBwUKC2Dw4KRg3ikSDRAPHwlw5eO9RIvEsCLAhJFaZrGimab7X/7yr8D9KKLX1J4P9vPXv2a16ZjUyC1dv3Grdu2ZVkBcK+bFYWp12rWGAZ3u91uv2+N9wCTFiKtYh3HEPbAYVshQDjEE4/KlgAs8b3LbQE4YxkUac1EChTioFGUNJvNbrfrnFjvSEVgfvyvnT950smvf+Ob5pqdtFJ9wcWXQEXvfe97iVWz01OR0lppzVpzFLHWpDUpzSpWegFq+GLmsOx2IHpH0nfxNV0MvwwAbNq0KdRABfEZmNrpdDAUHIF+WFyQ9EBcqBXhMAEZbNPhwcUZpkFyZOHznvyinomH9aVJEuyfbq1ZU88KtLtd1qpUSddv2vyYcx577Rc/64AP/cPH3/SmNz7+/CeVKuVOr1upNQY34YIwZMB7cUsWzi23dUIr+vyKtoBXUFjqXUV6qc8vgSNcME8hGQuQ+K9c88/ve//fvPSlL0k0Xvn7r/3na66+5+6fkLharUYCkCeioQslIdegBsvA5FDBGczYIxqoeMERBuuDjoeRpuGfQ0KqwVYbNatRYWYEAOIU3Z4jrZyEmke+7rrrnvvM3/rcdV9/zNnnqFg99nGP7+fmCec/sdvt6iQOqppk6BwA4WJb72UlgVB3lB/Po5ZOQi29KAXDOXmAYPE3ffMGb8yun9y+46d75+dnn3zeeR/66FWXvvj5hREAhCNoKqQOVetYlqbBYziEtUeJpsd2w08AGLSlLQqkqQq5TSJixsc+9jHdaDzliefleX7XXffsu/XWE0880XsflMjDPepjBWeffXZz9+6vfeM7tUbjMY85c2LLlne+850P96BWjGOOpod0xlt0vN/PikKiKDLOFda0290v/duXn/e852UOU5Plj370ozQ5uW7dulC0tdL1dL/AYOYNp576jne8Y814ud3uv+51r7v71lv3Hph/uMe1MhxzND0MI6YqrTudTrkcBdt+586dvenpiy++WAQC/NNHPrJt2zYAoXA7GOCrEIIVv3nrlv+84fr9c11PuPAZT4dWP/zhD4/88MrSDA8tjkWaehye5hagVNKFs8SI47iU8Le+9S1E0Zlnnqk1br75DrTbExMTYcVCqCh7mMZ+zKExPqbjCEy33XYbKzU5OQnx//4fX10uZHssEuJYHRWAQUcQTwvFK6VSybqBXf/5z3/+1DPPrI01igI33ngjGo2QKQ7q/kH3C49fFEUBxYijb/7njSrS9Ubjlx772BtvvPHhHtfKcOzS9DB0+kWpkubGO5HC42s3XH/qaaeVUq017r33XjgXx3Eodlz8XIRVcKTXrV9fGx+//pvfKEWcm+I3Lrzw5hu/uWRS+uilhf+bOOo0DUHgUSJt9FoOQgAvKH0RcRAH0Vp7j36/n8ZUFBa93q/+6q8WRvp9++1vf3ty/fqR5xSyuyvFcsnen+c3Pxjfez/h8RWcHJibn+/0e7Wxxj07dnSMK5XSLVu2QOvp6elUU5ZlwUCKmKwxYV38KFy/aGeJ4T008xNw7ErTwyxUEWFGFEWFR7PTBnO5Vi2MKYxptVqhvUxIK68apotBiqMkjtNktjnf7fc8oVKrQqTf73sglNqPClCWC9Y+7DjmhjV6dNjof0c7RIjjuCjs/Pw8tB4bGwudj6anp8vlcp7nSilmDs0QH67xH2tg5iiOS+WynZlud7seGBsbg0i73bYeSqnRg7hWafrzQOiQB88ppYwbPAqi3++DKXRILYqiOzsbOv0Oa6/8Kk1HIK08IY5jWGu9M84l5RK8b3ba1jq1qOJmlaY/P0aqXymEevuwtg7DJSLOOWTZqERrlaCHgZlzU4Sq1rCSjplBg5rOwEsZleT9HM93e0hwrNN0BA9Y75xzUKyjCCLWD6uzw+JDrUPV9zH7fNiHHp4AokHZkeKgixaKe4hExHk450jAsuI2gw8ZjhuaGuNHi66iKAJzqB5USiFNQwehUduMh3uwxxCICIqdeBCFVRw8vKtDEaa1bhRsPmZp+rOu6JJKYFjcNNihYcCNIUMdPSpC8oOiKBo8dHmhfgpAWOwsg6ofL444PHSZBMp7BmTwXCMyxnIUORHniTkGJ2TBnmJoHSdiRavY+p6FIFJiFgY7uhFDBy8Z1MwTDyoJ73+7XArxiKOhl8ngJ4PlgW4POcfifaFQT+YP9SkHP0oO+fz95DmFiZVyEIjPskxpUgSITxRHBLJevGfrtIA8CutMIp7BAAkYXssgeMih5ZuARoMZTM+we1S46EuOJPRO+3misoOT6xHTgMXr6wb/FgW0RmEggjQFBCSHPlw7cFQNTugGfcahCQyyznrWfd9njhWUAIas8y7vZ9W0xE7IQQmUldDyXpESxJahPbSIEgvyjmBZR6nWEU+3XSlBq23gdJnK6FjpFHa2E1HU7+c6LTlne9ZaZohngRoWCg4fV0du0LeMQ8sdYmHh4aP5Bh1HPEbNc6A8h8JQDIke5j1UviGcdTBlgkE7v8Gzch7QVisALEwAu4Xb2wmEZLjERSzDsSeBy3KtVMRKEWvQoBms92Ht3uKn9YUdQwRC4SxYtGaxxmU9wLtux3daidIlHTshzgyM0ZqKCDmgIBqIQfBQHiwAMYoCBGjtraVYA9Q3BjpxFuwlZopkOA2BFd7DGmjKe+2kVum0mrqUpJXKqIEGHTKBC7xc3GGDwAC0WzRriwmaFYVK4i4VSsei0QMYKIAY0MOt9gDBESzQkZwpAeAhGt71i3qUploTEHnyZAuyfW/AiljnlchCoML3isKw1YlwwYH8QjAMQwj3tmR9qUUVhlJh7amQAzlGXEo5LXGkJVKexWoVxRE0iwAC8YdeOQILRAhevCd4760nsQNDYnDvhmJqFoIfjBEAL2rRsxjeExhhLYD3wykWwgPZesAUORERKUWsWTGISIHJiwh5z/AMzyIEsIcgTVIdloGIeOtJSJhoGeONhLWD9szDpLNj5AqIrFpXd2PVDJwBrqQZbBEJUAAuLNkDFECMiANDrNYxAwrwEfd7nTRO4riUOzgGxeSAHtB3sB5KIWJosHNJSUGVJi0Q1XVedBOoZR+7ceivCO3YQiBC2+GA9OBW8IAD+zg1XfRvm7v7gG3nVT3rMhOz1zxY0yjhJmNPLGBH1Osbcahwmhp+wpZzq6U0BolHObdlKLDOSCxzD9jt5u7Yt4vq5b6SQsEoWEhQbdqxmvEEn2tjdeHYaO/LhuuZPrN+wgm+FHtf9Vr5Ar7fjYpO6ns972HnXGb77QyuJzZOE+ecElIC5Qe334KeyK0CKWKllFaKmUkxE4/aIgQ2DzfsyC+6t4dqelEiTShUuoPEC7H4FbSHAMA68iLOIxNrbe7EGxEHYeYhm0dj9yyAERYwKCJWxInSmhfCSnLoUJVHLEgKJA7w7IgzjWYKVPGlvbfduyXJWIqIWtZQEmUiNa+m5ouSRaGQa2QahYJleEItLinjql6VC3ns5JnlchwMK60gwH6P22eLnV3TTNM8VbmCtahoYC6fFL9BczXvnblpvKwaZUAv0DHM+SgmtqynNFiGvLBcjTzIgpyFLZDf19x158y9ppEctK1+hKScWOtpIDEYUB7akYYo5yhvZUmuJlD5tS3npSAF+J4dyDTlVUQxRQWk2W7f9ZMdnUh6EfoamRJPKEiEkBreYEvaSzcp+rExymov1ZzG+3p7stbHRQqOAYYD2VyZXPtCeYjr2YLyftsVfWe0K7z3JdYkULIgTT2gBLbdj0lFSsdxjDgOT5VgZrFLeQ9BQC5Ohg3MLBn0WCAsyIZgV6zEKSVAKwXvrfjM2b4terbIvXXiozghSHDAlYA9GJ4ERb9gEBPFSpeimONEJ4qZDzMKR1ZvuFfVcFg+GGbMd+3eqTeMNWFyjXlbSBoVwITTmw7ktQK5Ri9CN0I/gmE4hs+NbXVLmZ+i5LTf3MKISaTT6k41JgicWXvHjtt+PNvGus1ubM2ccc12d/3YmMzNVLLOHm/T9vz6qSfEZR62ZAr/LDNZw8GP3taxXWTbBpOC2MK3fM8zT9Rrp6Vbk4nqTNbq2r5SXI1KShBsZw9lmR1igXKW1aQu+Ujmi3Ug6ueJ1bEAmiHeWtMvTJGoUlQ+sT7V2bi9YMmUOILlYSMJQmqw3pS02F5sssjm2gE+cVzJVb3wqRUlXgiOPcgLOSEbJTHSJE3TcrksEkfiklLqvdcegabBU5Fhd0biWAsNQ9nkvPeh4+HwmX2jbYCjwcrS4YUPAR1PRIHEwEIXuwERHnD8hAW2n4uIkGhClOgkZU3iCMyaxGuPyEMPXwBQG/fei/cs0KBI6SPXdYw46hgFARqWAUAJYo9KAWQ4f9vpZ20+I/O2IOnlBZViK6gJT5ZtYmEZRiHXKBiOIYRylEQOZShp9k5BvRS87wbP9neUStU1MR67gTdX6lRNpRR1i6gFWT9VcvW1katr32sdzNKacSAgXnC+DyUlRodlEUcJAPSCGzRQZ2wBB3YuSjjZOnnitphrqGW1zMIIbIqYBydhD/JgAy1QFogQlRB3a506YK3EIqQUxCHSOlKJZWsLFbkN3ChvPyNC6gYGtwz1siRgnWcs3miTa1vACaBAkej+wX7C2oo34Q+IIqHYoZcbWB+DKzqOdGJJklLJe+/7eaDpkG2DrymNVenQQoqw6EwOd7QXUYkQpOSCY04eRMEJW/CrAMAv/yjxJUCCiJgArShWlERc1eIIYCqKggTaI3IceWgHFSpyyiULIefFeXjPHizwzo06tA3Wkw2/wjKY2Q3DL5FDYgGDszecdM74SQ6eQBmMQmQhGiqdgEIwshdMSAYcbAwVg1tqrgy05+cjYqVtKdbWtepcPm/L5gJJP1cqijWj5+OYkSHWiIF6e22tgYhhFBa5WYtxiC9/OPTChxggOIQfjnK0RgFTnKYIbdZFgWjQT3l4FQfBJwjgBLm1AlS5EgNJNQUAY8FavCcgjmLPKsQvahIReT/w64RluEARnikGew1O/YgBTF7FaayiqJ/ZAmDRQFQ1XMmp6BbIbFpIyZIS5OJjWOcc24G6DFdOMJAKQhZEIDBTUN5hhZotzOjaDnxKgRC090JBuS82c72AFATiw5PRhwwmFrAs5yIcDvaoRAkJHDkPWCvODToAWuuDJFAeSoLuZsPodHtW0cC8HjwtdKFS6bAIlx+0mILjsO6OlefYEQx4vhcXJhgPtlBas7G2iFxfsQHpoaMcAVoQOUQ6CXc0VxoG4LExA+TSH6eSFJk30FFa9txwnhjwmCDAod3NVBKDaTKqCMBIlHgM+rnyYl4eadAvPqChgrG1oKcG1qpDrKA5jgQksIZIQwqmaFHEdJFVpj3IaihwClNYHSuBWO0TRreTFZ0iLZU4iRTIAb4wzMwy4ChJ6AkDT2yUEhDA5NTANwF7xHEpgoIhHQGONEgrRMpzNUrjKK1ESVnHDOeNJTFSFOW0TDT4cRLCOgxH6OeZEIhIho06PC1wMNivgyEBJJ5hBeG/BR4IQRgYviEENQiFCnnPgge8ABrOe8igXFGJqPAQUfg0ikdLYoMlBmZheJszK61UFNpjeIHzYbHtYjk6GqcHPNgPr+9Qc7ErDAobKR0TKU/aEzsQoVDk4VUgKBBbaA8lkMIYY0SxTqK+KSiKCERInGOtSqyQd3OBS9MYNuv1O+VKRbwvMxTD9LOISy73KmHAARbEAIMI0Id0pFiMRRJXF8ozeCQ/1DAIyAYssB4dIIphE1hAlQJlrSYdKXgHzVCAKRDFoBhCcAqidA7xEMU6sy5OSjotBYlrvTiCSlJr7WgQIw0rREaxIw6m/6CZERSLas3lGyaSzCNm+ChFIc3CzWe5GFeYwhhjrQ3BGa0U6wgi5MSF4kiIhThFnhBFapGtKSGuSoD1duO69fPTs91ma9umzQf27S8naZ5lLu/HsW61WqS4UqkUpoiSuFytCsE5l5siiqIoSbIiL4qi3y/I+HKS9nt5qZKKp06vXSlVs6I/Vh+fmZuulKpObBKlnV57amINYu2i6N7duzauXRMLmVanNz9fS5I0jtv7ZyemJjPrdLnsmHvO9p0bm5qklhXAOSfOhUeqs4CJjHeLa0cGbe3hLUBq0HkqszazzgigSGLN5SQz1oiB5oglh091UrM+6ATC4HYVwAKh80eQUDEUTLir2Qv6wfSvJw7IAA+NUmrhgUIDZfiIFDodBQWloXLYPogRJ3CATgAyViIdLbYxgFGAhQFoC+ZhTErRMHoPaA14UJGlCeWm4Ii87ZvCNHRajWKQArTj4INClQaPhPMe3sHCOrEeDp6SKIWnhTgOoAge0KxGknshpk3sHcChlWF41h17IgdMTCR9oEgxT5hzgmoZtVrUGOtkc2BYHghLJ2CCJ5BWDs4778SDCVqrRCtmcYMMlT/sJibat2+fzYq1a9bMzs6KdbnP/vBVr9y6fh3DFkXhIEVRkOI/fetb43I5TpJmlpVIm9wUxsVxpHV80bOfft4vnduoVMPzBI0xnU6nVCqFRdvh8Vp33XXX9773ve9973v9uVmqlJqpmti+sdfu79u377IXvfgpv/q46Xt3rZ+a6vV6HMcz3e7V//KF/d323HzLRYnJ2nESk4BEQhsYHtTbyKBXUqi/YQqNSjRTryg4jnSUQGulNZiG5nhobbZYdUB7qNyNnE63+CGAEROg/JAhgvDwXw9ICAUAdvgOAQQLKZQ1UArwSDyMgfGwHhFDxyg6UHHW63FUIo78gk0fZNPii8M6iFIavh+arkA88g58kXABpXTrADXKZWURe+TzKBSsAytVHQNH3dxCp7GqgJgBFlGOvWcRcpC+K4L9zkM6hiDL4DdjmOQACHBQaRQBiD1YCKKEkCv0NPb0MGO9r3CJsZ8NyumMyfZ320oDEfoRMg1DKAhewwuIPTSEyIMtxLGzzpGnyFheZLAuGHPOQyQUBMY60gmeesGTnvnUX4sAb12klQB54aJYnX/eY2/+wQ9VveqzLE5LIqIATXRwdvaXzzzz8b98ZgQUZtAayjkkMZyHYuQFsix71AnbLn3+swT4wheufddHPnTQ0MZNk+1ms+uK08999PbTtj/mtO02t0opT+gr+uDVH53Jsza7dKxsmF2riGSgMhkkAh72Hx11egritrDGQjrWSMwm3KuKGURe4IMvxTAchYbPiuIiPAw9pEphGVYN7n8Bes4QEJy5yCNyYIGQpzIr5QlMUPGAS6JgNRzIQxXIW3A9sIEy8BpUBdcAa7OebqSJRBIxQfnBg1kxtFz8MCmoEGTu4mSfA4i8IoNYIIIiRz+75av/GqGQPEu9i7sO4L2dtl67/vTzn5xs3qZIaVXysIBi0ooIBCBGcLsAN/x6HkYUWKCBYfx1wcaNgL4Be7AHHOBBhESQM350210/PrAX9WpcSXbefQf63TSO10zWD+6dBcMoWIYlWAExPKNvCkWstBKCdbZr826e2cI0WAc7cpQuD8h6fQ2qxaUDzfYZJ586M9f87WdfxEMlowDjrCn6XuJX/N7vXvzSS9NOi+O43WySUnFakg52/XTn9IGDUcgci/PGa62jiCCweVF4X62k5Tg1VjqtbqNeed5Fzzj/t572O3/25n//1n+evGGTg+RFMd9qlusNsPOAJQB6/9zMnl430zQ/5+GpYXTqSbOKlI5YkdahsVOe51prHUVQ7JzN8rzT6/VMbgDvfa/Xw+D5CMF3YSHyBIzidIALuaxEgaAYxGCCHVwHkFIMKAWOEGEgU4kAtEjCQ6MiQUSkKMSqjYECOp35e27Zf+/tLptN2HqVzNNkoWtRUs09nf/rTzOOlEo8jzQrlsxRaTJQIWXJMENZ7sCaiMOfWNQzVDw48xGkklYKor71SJIkiqB0aHo14BuBAD/UFH7h/hg+KGP4MTd6AwsxHAN0NJRHtUDZgiwAOIZjTK5fM44c1bKKVTVNYW3V+rKFWuRWBznNApHBQ2kZWKqEcolKiEqlNHdwGkUxVq30s+4Zjzpty8ZarydRAq0I8ERSKifTM3MnbN161lln3HHXnRNja6anp1WstWbr3cTEhFIUfmkpVosjU6U4stbOHJzRWo+PN5J6JRjFJcV/+oY33fnKy6oc9Y3ptZqT9Ubf9stR5EEWzgNpJdVZt1quzGb9iCKSFdR/sUDLwAeCMAsLYBhQQUeRRwh0sFLIGZUYJQq910JCAdEonHOoSy4U2l8BRjMsSIOUJ40B3SOQZ/LgkkXFS0V8AVhQzKxJmIVZCJ6H8lKH+pRhrNMPxdoAesAdGlxXNyBTVLg8tsxIkMbbnvw0VMpwBuJBSBWfLAArVOugknPeAImOWUgcvMDAG1hDToS8Ay+TPRwJsxHRLDOiyCvkkTD5iAFhwySER28fW791TDRKwI88/U2lSv1ec/8B7Rke2g2i3+IROSiPRMfkxRsvEE2o6CRJEoZExrP4UNKxuPKIQaUkiT2Nl6t7d+76i7e81QvSlNrt+XqtJCLdXq9aG5uYGPPAa177B5f/rzcSydjkRLlS8UAvz0qVWn2sYbwhJg2e77TEukq9xgIoTpSaXDPurPHwedZP0hITFPjUSv2db/zTP3/LW9aWamWlGWK9N2IdxDjrNY3Xan3j47Gxep7XKvVsrhPJoOtT6D+1UNxI5L138EKIkqQeRzWRInfVSilrtg/oaKFUnwaVYna4OtITDKNgeOMjP+BouO0DnPcLBisNnl2tvNRUBFEACykJMRDAE3QcQRwqY1Nn/PLUqaeDPcQNQlFxCSqWdh9JObIkQ+m8+P4COJANwiBoKBMiaqBBgHiQZ42qlqs275UYmEhIEfKemDzvZ1FaonLZx6lXZYeIEk5CDYsfKHjP3pAFOUeURlUa3tkYlXsB/lApJyOTxDhPAvL9yPcjFghEk4fuYhtj/iDSFBPzfczNVxM1OVE/cKAFi9QitfAC4xALnEUZLNY5JwZeK/KRAmtSCAGxI2namm+unZik3Lbb7c2bN5920oa8DyjUG3WGc+KiNHawSqn57tyjzzjrhO3bfnzbHWOTU2QL56WbZ8aYTq+jWXkYD6iI41LCTHfddeeuPbvzfrZ+44atm7dMTa4x3oiFZhVzeuBg+5mPPvOf4nqv21qTVOen96+fmsqKfhzHUNqIVKDHOcnn+xM6iguwjoFhmNkLDWsjlVIyoCxApJTSKiIiRTYsDUcoHRBRRPBgDy2hKg0Ifq3jSCDOh37Rg0Kb4VWKSloNs8FuEOcCgP6gfgpEwUUOfpf3cNYY8hIlVaR1eIJ1EAvbg/MgRXEVBQojJCQKaqQkFsovFktTGb4jIEAPlbIxUApal3MxaWkMsNARsUqgLciDBdoNK/hsBs1DH08hUoooUtAAWzjyytOwtR15BghenCXBIMA/aBvBQqFwSzloIQEZwCoPBV20+mNrSiDUUkxWxmDZWNvJumHGlHjlPYHcMJIi1knorwsWcVI474wjH5EIDabVE4XvJcFEvRGBC2PF2d99yUusRbUEBWTGZP12vV4vRamxzvhirNIo4J910UW37nivi3XTGBAhTgvro2rNQfJmt1wul5MKQO2s+/kv/utnP/eZqampvXv3nnXWWW9+85u3b93uYGfm56fG1m+aqDVni2c//Rn/+A8fjrzfMLGu3+uWyqWsyIm4pFXsfTmO2rPNRmMMxvisJzR4qMOoPTNBiTXC4SmWEBFnrRixHuK1U2ILA2u9tfDCILCGxF4IPgKDBcyhZkCJ1l4GeWYVFp8IhOAAEbigb4dRZBpZFCHyPiQrAIImzRASjr3nXm6USsv/P3vvHW7ZVdyJ/mqFHU+4uVut2AotFBFRGCyDBAJMEAYbsHljwGPznhPG1jMOeL55fDPjb2YwY/AbB4EYY2CMMJZNeNhGFiZYGBiJKFBArayOt/uGk3Zaod4f65xzb3ff29AeBst+r/p8+9v39D7n7L1X7Vq1qn71qwhQCk0BQ4gSOIqzBAKlHc/xarpOwjQtGqyrBQxgJt6yA1lIi8RDe0SNSzxjvYfa4ug6KoPSKChXGa4r1VhpXMSIyI1BVpohHZPFGJ7H2nJMkARH3lAz8MMR+kRWxT5KfJz4OIGMmSK4iGsth1oOBTmCIqIScV2ntpC2t+O0dGRdFZfLFsu1B1KXZbKTWgUIa2AtG8vWEwLJRyVRK9QKVjEUhISCi9kqU6S2aMG2BbcFcpKJZ+UdGts/usp1vWNu7nnPflauwAYENM63Owsf/8gniJWylDgZQbDDC577w0Zr6naLSJdx2oOs46xoqOg1s/lcLBPppfciS9q1l2ftubhvefcll995/0Nf+OqdFqr2Mm/POmBQlq25yKUeMUkGap9GqXOkVJLqlAzD+bVindqi9EVZ9fNIdLTINGWaYoVIslaslGeu4Wv2DbER3gi25I1kSK8ER4o1vJBg8uw8wUsRd0jAAlAoHUallySKqhp6DBiFQ2l9bZytXWNcZZ1T6DP6jBIYGBQ1bANRIGoga8gGooGwICfJRcQJIzY2EjIBBAF5pIUDgGHZIO0gzsAK1qMuPbHU4OCcGkbtYDysBTseO6FQVax5Ml37SdwLgGEoARnLXEudzpMH5lIYw3HkISiJBCQDBYwA+RiAdZs+jvFqX5KxynEckwDVcC1BCVSM2g572gGOAWiwE2QFGiF8pD3HGXfZOB35xoG1gKa1utc0dZZmUrh2UkKNinK9N+o5wePkD3mG8PAB+zzOYnuEDs5MXjBL9pEUBMvehCpp7wUzyENI0U6T3pGjz33JS1IJAUiBqjIiSQ/1e7/7B39w3UteVg6LTqcDhmkamaoXveglH/3bW7sLC71+IaVWJBVFeZKCYQv2miiGA2rnesPitF1nHFldUTpud2YAxELLkL1TSgCk1dqgL0hByVFZJO3M+0CsQYoEaSW00JCCwaaepmcmCScBTACqMQAAIABJREFUIIo0M3uGYw9AEUFJwYIIqfSpdBBOCUfChXkzJAF9jUgil16LkXCDohqJvAOI2HvygPfwwXBLuLSrdA1hvYwlSQAGzEA6trXT19QfEJGsg2diXCtWiYQjjGJZwrRVLEA+ihqggKngatSxoLaWLaEjSAcufWON7UQdCai/qsYXPHaNJ6FELQAPrpAYcAPy2DMnlZILQAQ0IAOsYLT3yKMDamr4qJ2EKA8BkjkktGYq+ey5C6MC8NAktGEtCcP19Qf3zszMwFhYC+/BXpKThFjV0OvgElabKpZ7riKXrEo58jaLpfbocHlo753lA1/PsZaJgQTbbTG2W4iHqOoK7Cyc58YL6YWEkAShCYpEqqMXPu9aCXiHSACCHXDbnXc8cHj/PY89dMm554fv6aRZDfxvL3/FLX99S8tTU5o8Sdj4uLbOeKRCZhRsVb8sq7oshsNiOHTWPu2JT7x8z54QtJKANbCjUiT6oQcebLfbSZZCgLU0gBfEAJGwHt4GsAyx47opp7HeAJAI8OEoARGBpCTyRMzsrYevYtNLKYqao/A98iXBkDCAaUaronJ5s9pCg+IgqsMwK9moh+58QEqOYRBhJhK6t7LWPf8JWWceVkK3QBpEth19ZHjfkXw8BIJFACIrL3oHlnd1F7hfPOmci9JYaECR6LuRj7L7zaEjvTUXSc7jEq5k6wiZzCRYsaNhE9W+LaP5VmcxamUhEPCpr+4HwCQckSPFE0yAqSstWbHLIuKmiAV2PvOCNlAzNHkHxxA9N7rv4GOHyrUhOa9ChUmASnBwWeYKefVzLnSh/lZDW4Yk3xs8ePddSVFkrk6M1d4KhBonODWK22XhemBZiqXzznxKFM9RFBnvPDiOGHVzeO89h+7/ekxIo5REDNSTMZvUaIUC/63yxEwYjEZhmcFCCqmVFiqWUkolZDEYPPmKJ+5anLHGR4JgXRJFI+DPPvoXF1xy0fv/7E///W/+m3pYKCGSLJfA2fNLP/SUp33l69+YiZKE5KgopTF5LgB4QsOonW2l6ctf/vIXvOAF3tgkivecf+7SzJwGvPFN3QhS3bxDwB1fumNhYbE0jfPQSVwDFK6AvXG2rmvLYIvAiePF9PqEp3GhQUjbxkkWlvzGmLKq0BS+GWmj62IFDOsqh4YEID37IlFGqxrDg+t7bx8duIvKQ94UMu8whPJCekFMzFEjdCX1mqMn7+hgJhuHppyGJ4v8M/fcfqA9TmUpD+1FAGH5XrnWmhXr9ZXnXJpCOa7ROElYl6OHDu6/Z//DI+l9FlXsAMRxXBdlHEUS5Mo6NnxmZ/6J51xwuloaT/pPmhMMeBIMciQmauoHA5Mo0hLdXHMTm3K4APjKdD1SQZGCUViS2e7W/FyeVxEZck5MT3espp1KNjW7po4iTQ4N20xq7uZ610I30hHX2lvJjmGYmMhr3+iqH9tSQg7sDKIlIaKY0JLS1M5ZBZUuLZx3eG1FRhg2nUGVyu3hSGEhfyz2U0DGgtkDJKSQUimthdRC2apydfPyl74krJ2VFNWo0rq196F7v3z7HWcvLv3tJz/5pjf87K6FRfZuMOhHeaqFfuWPvOwLt32+u9hWxENbRUp6ghg/M57ZEdRTL7mMAQ/WIAWYqol0JIWQKoISIPzd525f6/e67XxUFlVdk479NKo7DUcwAEEMocf40qCgIdAYAAY8zZ+wAAtiwSw8eUfeCoGQTCbhQrRFQilSiYLIZubnUrdTGWW5GUBZIeEFs2AOllGziCVLPzsnZFw6J4TyUljnHdSlC7vPTMQ0Yq0dKY/YoTUXdyjq18sLSCMGCg/EWazKprcz6ridZ1MrkZGuy0rWNpV6ZAcyjnyqbddL42eitOsi4kpSBkD9yBNOmyZp/SabJDDjAeORCwBoqmIWGFb9RLUES+msVnoRyWWLZ4p2zNBTMDEBEhwcrwSSCyPzSKei9rasLDWcdrq7r3hqK5ZgB1h4FyBSgANbJBEc4PR8j6HiUWlK1j5ComRdGsTpaRdfsaZlwUlpTBRLZzbAQZgEDaZL0fBfYmJ8GOh05wIYJcQBiEiA2PtiNLpg9zlPu+Kyqqy7SQyGMXWC7KLd59/ylx/fOTNzZP/BRMmmLLVSs+2WAa0X/Sddcsm555y11hupJDfC6zQyAbstRSSE0rEFF1XJzHmah3Os6zrRUTUc2bppd2fvfejR97z//Tt2nb58+GDWametuJg0HxAAhFBSx1HqpEy9Ep695AnOdbwGDwd6ZiJBoeEW/LhHUqKlj3WqZb+EkD7KvIwsAGYho8qzZxm3lvCEp8Z7LgQX0oxilYIUGGARAqIgDamGvUJ0d9ZejrxLRUuKhIV3ENfu/oF6UjsVEu/Bn/HezIp8tb2sAW4cRTE8UJmFVvfineoscIQMAHebxNtM6BjaAD3YGl6AJDh2lopG5hkANVcaYBoPokmCHUkMdiiLUaqV8EbEMVzZznNuHKKI60Za12KcrdoRYgfvJz7iRB8mEIREaCEsACllnFTs4FQyczqHyXn8oTCLsRN+0PQFxbGaaTIWviplpUgLFonKygQrKKPZbr+1a2S1jstWvN4bbUEMvRF6ow2Q6LiXgVBMIgTGyTN7y96yY+lx3Yt+WAKKhCCAEcexb4wy7qKFXatHj1x81nnwocDRHlk+NLe0k4gYeNkrf/T3b3hXlHWaRIzQxIqo4bIsVZpAkAJ3kiyYgIZdTDLOW14iaudpJ1/tF+/64J/es++xXeeeoYc5QgLZObDXWisQeQghoDS0Yo7AIFgJj3GwEpNgNCTATMzMnpgQUIoQUYOckqRMRog6jWo1IrbQ4EjErYaSofEdGRO1BBmPpjSjuXh2gvOetDIlAabWbGQtOc+pkNpDCGgBz0iJHeyxNk54ICz0Zhd3jADEMgK8Q9nUmaMuRalgx4ac141vO0kMRCLxRsJWkpXWWuhEJpSOR1IpFUZSbJxWkIYhqJ2mgPfrPXhr+j29sMMQR5okIkgpPVIl4RhFFaXJRqBro0qDjHPsYb3TWrfjlnW2LEsjRFjhjnsdBbUmGO/WmIsKkUk7CWJtulnCQAM7qksdZYV3/dqvlgouymLVFGsCaYDTbOeShvdp8vQMyoqk0lIpEgQvmOE8O5fE+pqrr2Yg0tp5sDVR3jJV1U0zMJa6C7AOJOphP87zhdk5BmdJ2q9GL3zute+84QaZKKuoXw6IAaY0SgMcrjccqCS14FhHHsICUNR3/sihw9/+9rf/0zveUcn4zEsuOrB8IM1b+w4cvOjsc5NWYsthLLQSMA7sUHvfeGfgpOM4ZDw3Fo5BV0Wg0BKkQiiVmZ1jCzSkrVal03DKeOW9ClOdbSwBQmZWojQpy1REILVQWmi/gVwL1fme4AyYkKVgwFvUNZSCFMhUCEiMnRMHOAgGIhHVpkp1EgakAawzWbulPWJCFrKvEogDANXDOSidSZ0Rmqp0pvZSyTgOmXgFpcKVbqYWAwBJAiAWgBDzS4DXeQsQIhIrxaib5bWzsVQIlidSoA1r6r0f1x55aNIoayUUGLC1YIqTNgSYUDfGMoSUEOTYC1CsojkdzcRSNwF7r2HAgIIWxoOFcKqlEfuc4gXqO1GFWJojoiRJPFRRlc45zwxBGP8jAiAFgRk0szDbH46MdSRpYW5234MPXnLhnn0PPvSaV/94pogA65yMpIz0aFTmeQqGtVCKANlfW+vMduG98yQhR/21me5sAbz+X/3kH/23G2XWmul0A0wDDNTGMndbna/fdU+vHHUX5wdlud7v7Ttw6K577r53731lWeodixXL/UU/mpupjq4sLe5M8wSGO1krwDyFcbZxswsL+4sRdGIao7ynCZcbEREkhaQ8hRyi4NCUhwBJkgQ5Eo6F9SClIMgBxoEhjUXhciHHMHeBUQnFyDRAgHHGWiGEjDQzmrpJ8wgEN/IyFpKhnIliDYGN1roMIiEARcRADGqpBAElGA6RehwG9Y6MY2aKNaSohRu5spW1ZDhzjyhKoScwpWBN3QRJEGRaiy7GaKlg/cNjKwKEKs3yBrASNVzlm0RGiKMGG5MvTxVeIoLQ7QRg4b2MYgHvjPXWem/Ze/ZWSJGoCIJgGj+qQA6sI5NLJkLNwjiCE77FQCO01DqemcUKj5YriyhbHA1KeGecra0BwTFHgbKTGcQ0gSsEPIwjGtV17bwED4sRvO3Ozjzy0MMS/uUvv26tX8x1Mh2NoeFxnh4dFpFO45hCfEbPzZTORlJLqcqqnO/MGo9M4IXPee5f3vyRI71e0RvBAlUFraC1Akzj/+qv/uofvnzHWlE4SYgiKOkYFqzjyGtdOk9SWu+qUWFDU/eqISsgJRxLqUajcp2agp0UTniXkJTwATIJz86P4f+beAYwHV7lfaIgRdMWFsQRWHkbeQdrRNmLirUYrCOljRFRnLGTAnAM76C1TmM429RDFiJtZ+urR9M0994nSKGE1dx40xuMunMzHnKz/myWMbx6qscAmLmpYk8qSUHk2FuSMm2VgAYymiySNgPqACVRH/u141nkWLTIBrB6+eiR2YUdB3qHo27LQ6/KyqA0YI14fARYggN2wIDW4FNEDoXD8DTqzEAjKrUxLcmZ1nCMwTqGNaQCQ/gyS0tIA27gBVxOREobJQ3YwjJKAd+eb+7tZmvcbQ2yuWpwYGxXiDjgLJvGg4mmfeksjctF2BGNrPGgVp5REgtrl5bmH7zn3hc///mRwAgcnsP13sh4d+utt37ik39jhFJpPBoN1tdWzjp9lwJe9oIXvfKlL3WWRYxmULQ72Znd9rXP+MEb3/f+mSiFBKIEcnJ/Y1EZXzQm6XS8Ek5KljJJUxVFjnjYuGExamW51mJEgiIFBuUxADQWQkIjSmKGV5F0IGsxciWDlFJSTHp4e3beaWzm2B7rq+I6LdfjhrPqKJq12FbaGw0Dbs7sxK3cwxSgRvAALGI2kAoOUBpCwEuoJIojIHYo20spQzTOr/iCSXGuCXJFxkcJDY6XiV0b506nf0YAinox0bmM4IDG1d6UGqxlDD1G5E1S7oFYRE8AVMfIpjzqcb8b5nDqzs024M/d8aVCscmjofTUikwk1ka9wIskGcr6ULZbC/Qg5pZ2+LVhVDVPPe/Ci+dO70JlWnHTBwBXDB64+8h990fFqKsUK3tIDLwctW1fOwE7V0tdxqUTdSpdR8ZizZWI7+v3mxq1ah/o+4QVhIiiKEkS68iOhmUxqutaRnoyXHYSwGFPVDjhAWsqyb4ZDvurR3xVXHPNNY3HXCfvV0ZHWuU5eXzyM587sN6fPX1nvymNRCHpkfWVQ48+qpPk5S99aZpnYLSTDB6K8OMvf9Uf3nBjFCV144SxOour2varYma+45VKu7NOCdaqdK6oK2udVFG/HB1ZW6Mor40TsMOV1aKsTO21RGOqpmms8TNLc+u9/rKr6lZKIiLjRraCkElCSaQQ6DBC18YNGNpGCE6yq9cPi4jtaAWu9rYiNoIAwV/63K3RygPZaDWxfTdaTTS8q00cD3XbtbojxtBh8exzL7j8SVLIfjmwTnZbS1rGkMoCBXi5XP3GA/se7Mua8hO0BWIKHNmEj0v8cGfSu3LPWWl3p3TWO5vliQIGdRnFWk0/TWgERpO/gprGx+vk5sT/sWsSC5TC1kChUSgYjUKCNIxGGRETBEM4jgRZx8pBMLVrLBSwJaIKsxU6EBkoBptAtSRELUWpYLXQiiAjJ+dAOTiSDMiZSAhLSlEkXSkpZk9A7BiGYTDbQMbQx58/4AlTtNexcVOQFHEU26YxTZ2nMTfmyiuvvPyiC0K6eFBWC4mGwNe/fs9XvnnXuU94wnpRjepqfnFuIc/B/nQV7Tty5PCgv5h0Io9IAYTaYceu7kWXXXpwbZUz6SAd4LXK804NIIkLZ5VKlIxjSZ60I5KxVjIWHJWVtYWpbNnJW3GnJdrCAlUlsu6MMZ4l8m5HrjXKCeVFJLT3NUvBNH4B8OQ9Udifonkm++SFd0R2CsgXIqChIZiISYSPsidykpiUspEycQMoD+li6WOIWDoPKyPEU1i1AWmnldORVU5sDAFP0g1hvc80zuWOdVWokRaDSPQBGQnFIgEiRmpEEo21zgnUgecnIHcBbMvItzllvElZGVjr9Trd+R98+jOitOWhVzGyYANOkPpxgQFUiC8DEsRwM8gdV9wvdrRmWohMVVbeSpUACkrNX3jpwjkXQEkww9odrRTsYWs4wMcggaiGaFAN4QglzcTd4q69KnmPNuWuDsrSw/umacqq8lBSyiiOkzzboCIjKzmoLlsi7/zM3DyaphoOTpubtaPR/OLcV751V1PXTW3jNLv/ETGs6tu/8tXZnbu8UJmMvENTueGwb2w53+3uf/Dh//a+9z/vyqsSUonSo7pRWTp0zVOefdXDq4c/9g9fiJRIkqSsjffwno8M+u2Z2ZVeX3gCCefZgq2Fd0hF2mkpSOGkj7i+865v9deWdaaLpui02sO1QSdu5532kqCaJDVCgF3WlgpKKQgad42w3jmnIz2xPhviSOiZHaQZI484MUnWKF2TAPAD11y959ILYUaAQVMgjgAPilFJIIKSUAo6hkoA3W51iAU8XA3rnVMy1jij1RZ7LnhKqqaTvthKYfwmRdJYNNbMKgKgIFSki6KJLTJSMGPLGfwuMSltDeqtJssdj6kBPWbKF8FhneLwz+nOe2Am3WFhATrdJZGMCORhMQmrC3AIZTjAQwr4iGLVSiIoshBIG4GSuV9ZAyg130pUCqKmsRjBGkBFZg6sIBpH3Pi2Z6rQCIGoE+V5Zz21VcnJ4N75anGFHCbQYBCklFEUQQofglQMkJyqqSSqjB1Vo4TIe7uystIMBrfddtsX/v5z5ahyltNOpz+qIJXKWzNLO7x1zeowi6RooOIWZVkS6Z07d932D1+47VO3UWOFEEPTyE52ZDRM5+dqV0trEq0AFMNSa+2MS5Isz9okddMYsJA6SoRmhlBKx9qOGkgykk1V3nTzzcVoXeTCKThjuHK7OjudJx+nEkLVTMRxK3XCBW6Bcck7C7GJ+ERsMqiGYpvNI1KDzCGeLVReyriUCkLt71fnFT5FAt12Yp5Ve8AyZpGpBtZCRkiimmlYNiBKYzE6OsiTlJzN0oQVhnXhFGdNMZMuTmff6bLn+Mdlk/VjVqZonPJJFEkiHUekJqAVBghSIgXSKakZAYRwyInOaPjSEFD1AYs1fTjK0aiT59pBCwmRwnvUDaJoPMdOySyZQagJtTEKKhLa1549qYSEhCDyTjO0lGgA46CFilsZmz5YVlHuCE4mYzQMUHtIidqiNhhxrPJWom0zOiqpC6GUUpGKmYQxxjvrbcBhhGCJZ/gxFpt4ptU+vLwcZWk3b/nGzu88Hc4Sc9ayWsfrvf455+4eVqaytr/ei3XU7XQkYVSXSgmwPHTg8LlnnfnI/Q+evrijv7benZ2PidfKYTuZr9gtnbbTFIXwviyrOBcLC0urR44uLuwQQhGj3x+YxmmppBTWejgrhdKxHlWlY784t1jTCsXSJ9R4013Ih6v9Xt2ccfo52lNRGulYKmHYCIBdMCtCSUkqJNnDoPmwQgDGAPvSEkkxsgIejuGIHAlI5eOWy2YNCaWTwpLRou+gPTIdwzrrXVkYq5VKMu9RFM3MfFsBpmRIMDt4m+kk7XYlDI1rPSdaNIW4Tx+YDcdRgAkqqsHWGKU0CaABigJZNgGqQgZoW6CNUgCgCHaT4Zx+L8H4QGEQirNCfYyT8BpxnjbwkMJNiopEGh2n4h5hmSesp0hrAhoPnYqg73XtlRLtse6z9CB4IggDs9ro2QVoGInVCqzQ1hisYTFGxFg9WncX40SyNXXdWuqprq8EdEwsmqrSKpYM4Zwkyd77jdlBjotaCRg0O9IZsBcGElFdjQlNnBd17VSSD4YFIDSR1pqJi6YEMRO8d/DotGdW1wbt+cWB87Ld6VvjCSpKJImUYHulZCKWucqhUA+rPG0Vw3J8HoQoVgxjnQlDUhnLLEUiM63q2oikpTkxbCP4euSjaEZE4nB/xKF8LpbMFhSQJ+N7N2XL1zoK3a+99+MSFCmlFDGk99xWtGJq7Y0bDSNBUNGgZhW366Y5urqedWZcbVuxIubalto7ECIFBe9NAwgo4bxhFiJRDTkPEmlaW++9zaKYONB+HotmHrOvnWBVBYMoJiLr4DyUQAzE2dRwjr+BNk35m3zTiY6OCT0EwLAYky2IMSuKAmDhTuh3wcd9ySbzPOXuqByMd6Hy1CmEDFuANE4iFl56kc3PAeiPap3F3RRVA+HRzrG+jiwHLcR1jh5qsOkNjecUPH7MQlhOjqvOfaha4GPmCSHhyU1jHuMz50CuepyvE+BJU5DApv8ZB+cIbtP7IYgttp7rtrpV4Q/yxhqCEizEuMWbAGtBUFoAE3LtwBFM3nsnN+f4NkldVxvHCyJBTExgJYi0TJQEcyKgycMzHOskrRiCojTvCEGmHLXiDimqlWg2xR8DtIVAHmB4OymIUGMyhdg7y9P8+CYZz2QTIz+VqqoCCyI7D2LnJABjTJIkx37+mCleAZtc740gAiAJwSBvDqIGaritB2ArIZSlVy0hFDShYXbsnSQDjFxtRQCewMGPPRMhvKgWMSMjnrVoMdQARsC1sNLGYykYkMChDmG21ZHxWa25feXylr885pM/3p3xY67cx43kee5B0/Z5NKEMmjaxpomE/e1OfnOdPoDQFoKZISGdCqT64yp+ZngvpXSOJZGU0nsfRREDjw0OUzsz8BMESVgQewXE0BoUkZAQY6/Rh1LBU+t0kOfj6FWoHxynCDfa/mwtCpsLajet7W2F4bAc9YfWeK2UkpFzzhlO0RLB4ga2+ZNuvayNGs1wO+nEsQRJVRMsYIE77r6zVmikNxJWeDMOTot6WD334medlSZcAjVk41wkHeHby/vvK442mY60XD38KNg2TSOsF7y1AWuaBidYU8BrEluO9D9JSyQCmqYxzhtjjDGh8RptEillaMwugwjJ3m75VaGpS2iL5ZwzxoT+RI1roiQuigLM4fs5TM/OS0mCUYwqpWQrTQrvvnznneVpcRE54kBYKbRD5Ci2uPKSpxBkBC1B3vlmWJTDUV3XKo+3LBzerttEmqYAwulJKdvtdpZl3/Hmb2Lk23zzgNGwHg2r0bC01isVKeWcc75hZiFDuOm7UVNRxzMThjqe+BwAgJXeeq1gpK8VzJhdxwsWzWpZuMLJBDEg4GNJKYRCf9hbXT1SaMRxXKz3UFeFbQa2PgXs/uNSrLXeOW+Nt8ZvUtOACSImYk/siYmYNjPSfW+FJuicw2srw4jlmLOSYgftRGwRes1yoGVrjK0bU9Z1XZW2clup6XbtVQeDQeig4pxLkiRN0++mlZfabgLszsftdtzMzDJDa4QmNuxA5lTmTJE79jIXAJxF7Q0rQUpI8BVPuLgRMMoHHQ0F48KDFs0OkcI7KSRHqBo4AgGXn3f+rrN2FWAp6T5DgHBalN5txyAeRRG2sqYT3/RxIhw4ybXWG2iSkPidQjo2veOc2W6KnTYZDB/RWoc+bymlKtKjpgIgQ0LZMwAhhHfMTFmcOPhhWek0ecrlVyzKQaUdMakNHh4ROaTQCiB4az0BSZJoqdrei1RtqabbKZ+1Nvim3nul1PEu6TaijhnHzUs1AZEgUZucWZ6Ut26jGVuK9CIkuJ3zEiQhlCcF3jOzc0xORuPYhQciYD6NFVA0TDFKwkixkmRL7I6jC5KoZhCB0nnUnoXoNaXcppv0uH/c8WoabMYWd/BUmyt/r6RpmumqfBPvMys17pox2U52Tn69E10P3oIQguEghAr5Ku+DCwvAWyclsYF3TmjZlE2SJme1F+fQcfBTZjE5eekQcvIshRAxiVhH05n6VPRhKtM20gGGkWXZSQ5WW/8GwzZe0HiovQeHLmwCLvZO+O+y7xHGtZGSCEIJNYlD1zUrv0U/d+VFAkChQzQoXOGdTqNMYm1QmQG326kf2dacWpIpZDTXmcmyrO6XW15Y8I34+Kcw+KaPI8mybOx2irEmhdVPWEJtNpBEJLbRUQChT3sISAUNCOsSay0TBU/dGQvvBQNC1HUdEyzzaDhqdVpxHHtm78xMAHgybXbeBMBshRDT88QW+KTvSoJXg8niITxLWm+R8d4sijfipqCNIRQq2QjMTs9LCXgKFGThA1tsQ0MbRgipCwhtw1Me4CvMxIiJQNEYhuinFLeTCJUREEil1Ep6CxjMp4n0IIdYSm9QDQs0zqwXGUWNG0FrY0wcx9M+h0QkaGtrut2EfyKDPYCALz75HfyfFO+cd86c8H603chtcz7GGEzs6ORAds4JkFQq0HRWVaXUXBRF8H6qGXmeJ7FqCiuIFHTaOIxLrwkkQSF8ziHNw55tiMhNbpdgDmHa8OeWt3GzTA+I4w0wyXdcQoVl74QFf1psTQZkT3h5kBWThNh3s6WxLR4bzuMpRTHNVUy1h8ZFBDT9Y2xznXOkUdqKNIyzCO1Hwrq1aUJUhZmnNunkl/3/HQmzinMOjLAys9aC4Z3z0/gXgHE1FQFijMjgzTHKiaWi8XZajP/9EeXhMekScyw06oQ/yAFCQUpomtj8E7cePClOYB7HwMdoc6bQOU4Am1ysSU4l0OhpDw+4ydqfiYm9YFhnRSRHbCOBSjIUECnD3oNR18ElD7bEeW+tlfLU4nn/VCK2sY7bvX+qEjq7jpOrROFGQQhmbgxHFBD3IM/w7ATVIXAPAgRRaOHpWYQeYJhMpH5TQdI/yjM9RQljeSruWuA52HrCBzDm3yNgXC8nvadxS68ptZifVC8B8HL8fDBDTNoXWQErvRU8JrRneMkGIEWlQdrJ4W0FV7NjIigVvLHgPDnvvfen0E/kX7qE2wJGJBW7MZm71toZK7QWk/bk3nuSopbTHAGNCUEhBLGbZL+OW0XT/1qfaCzjLNRwM4qFAAAgAElEQVSYTWVT0dvkPI49Cy+/s63nY3aEB01KSAMH95gCN/g6RI7HptWDIowrvphgBRoBBy8JiqEkudpkUVyV9dzcHJiPDHu1IKEkzc2FBUeY9KeL2X8eQtvc0O2uYJt0xnYiQycJAEAURdbaqqrgeabdYWaauGVBjxHYT2nD7kwAJUQIJiPkhMdBVHy/YnvqWFN64i3YdBMZIIGtkzjbyPSCx6lmjJdSNFbf6czG2FTbhXGzCkmh8M4LQEnprVEqQuPnujNQat9Dj4mrSSl11llnDYfDqWpOiej/fwGghQQwGo2wtBSClMsHDwFYWFiQUgqGd55ASikHZg+5Cc5JtKmYaaqjNOHqB/B9VNMNmdjUzb9/IsLF80kt6pTJIfijk5ki+N5e8ngZNSUr2dDUCRU/MKYjjN20R6iXQhohrHdpHksAWXv/3Xs7rJx055xzzu233y6ECMVrIUP9z2gNteW8ud1keqpqEdKnR48e3XPppXEca60eeOABAIuLi1oSPIKzpJTw3sNz6ia2d1NfVto0zZ966Px7IOqYSOd3PJzGUdSTHLKhpqHKAeMeSgwQi+PiKWLceWuCBp2wGAueVBdyICAWRFIolGXdlpF16KTZymOPZgKFlLOLC2VdkRTjeDGTlBrOh2/YKHqkEO7lk3Sf31JO9fhTklMd75MsXk/cIjRO975ZW7vg/OfGSmdKH9y3D4w8IgnAj5l7lYBwBM+CSfGYDigorA9qypvPQDAxjYtJvh/2VIUm1+PtcfdjKyGcGkaDiRCSwWBsVtNJA/sNZ0sCm2gH3YQt17MA0B+OZjqtTlt5IJF40bXXfOhDH+r3Vmstn3rVlR+98Ya1YtjJO4eXV07fucvUDbvxaDEhtMljhgdvF97fMnQngFNi/PtHiKJt/JPtR3/LZIoWsnFWS+UJpqpJSS1Vbc1pp+28++5vwZqzdpwWGbbl6At/99lX/eTrrQF7KEAqTYAzUEwQJCZ0DRT4FWk844+7K5IMtie86LsIlH5PZAMb+l3/mqBTeY2jUCCw4Emc9JgX+c2vAPGcsrs7Ik/kiaIkCSytw6JqjPvh51+LYnj4wH4Hd/mTrwD5w0eWA/omTXJrPU0jf2MJzZRO/Qbx/9rXP0LG6b1jt1VVwXljjGuMlDJWmpmtbY6sHG112hgMnnfNc8tBf9Tr94+sPO3JT5mUM4y/kyaJkDBcTMwTIhOmY8YLm7bfN2zE4ytzGGTqlm0eyDRSRdV458FcVdVzn/tcML7+ta9J0Hlnnzv3xCeura2VZdntdldWVvI83/IO0nfdTfSfnYTsKDNba8MK0hgT3PRDhw5hfubCCy9QkX74kUdQlU996lM3PkjHqODjUx6ParqlEFDXtRAiz9M4jmdmOudfeunf/M3fdLvd1dWjP/W61w/23m+MmZub6/fWQuZwEuvZXNv4L1biOA75cSklEQUAaxzH/f76g1/96k//3M8FJX7Pe94zd+aZT3rqZZN+BwDgafL6J76IbeVxqqabg1PjpnhApHRwILNINbV59atf/cW//dve2np/vfeSF70YjTlyeBnA0tLS8vKhbeOR/0JFShnyogET6JyLoijP88ceewzl6AUveMHq6qq15jOf+PiPv+Y1Gx/bPLNP1q+PQ3mcqulxIhjG+BD2K4oKABG98pWvhHcf/O/vP+P007IkvuY1P37P5/9+7eiRNM/CkQz4DRJE//3Jl/xTibW2LMuQ4LDWKqXSNG2a5tH77rvkec9bnJt3zt1xxx1w7rWvfW1ZmrFSTj4+wV08Tu/R405NxaZz2mxTA0rNGS9JGA8hxLm7d7/k1a/+wJ+8b7TeH/YHv/hzPw+t9+7du7a2trC0yORPNKiPu6v93kmwoAGCU1VVQIXv3bsXw/4vvemNO3YseWff/a537b78iXv2nN3JN+BXoTYAkyT241MepwO3+bSCpkrQaDRyzuVpVBVl6Ez+M//6p0ePPPrZT92aKLljx9KLXvWqAw88UBSjMP356efJA368ffw6YP9TEkCrSinnXF3XUsq6rh/+9n2XPec5Vz/7OYcOHrzzzjvv+h+3X3/9L0fAqLbj53/TFDMJgzweDSpth6dk5uFw2G63AfR6vVar1TRNmqZ1XUdRNM4wCQEg5NPD43uiuG20Yoq1m55A2ImU5kkSlSf5LqaNrnxuU5bLCjz5B37gkYP77v32/Q889LA1/LJn/uDMnidcddVVZd3cddddB/c/9qxnP1tpwezSNC3Lkh200AEEGLQ51MSNV12Pe4miqKqqKbg4jMVoNEqSpNfrKaXm5+e/8pWv9Hq9PM+PPrD301/9H8VoeNYZp7/qx37s3tu+0G8KAL21QZ5mBD8mnhiD9YgYiZLjxOEGhHRje6LwNpjJ7eKpISIROrcrpcI73xFvKt/61rdu+R/W2jRNQ1lCHMdh/SiECBWM1tpp6jygr2k7ESS2ekkpjnspJZWSAcl8TMoDIECKQC1PksY7QgghxJXPeub73vl7Is+vvfb5nXb77Isv/qsPfziZmbnvvr3LB/Zd/fznN6ZqtTLvfV2XSZQkOg4Yv4BV9RP5Z4RWcc4F15OZq6pyzmmtq6pqtVpKqcFgcOWVV66uru7/2teu/+3/sGNx/qInPOH/+chHPvSud//5X/91p9Vmx912S0kRjctVpZZSKCmFUEpMA6iTqoHxj253e8S2A7+1DIfDoE5BNZumsdYGZ/okl7ytNa2qKkmSMJZCiKIo6rpOkkQIEXDXoYA1aGpZltvVCchtfr5pNqoGNhtUJaLpOzwBz08f2DEslxmAA3tCvxy95d/+Xx+84d233PHlOM+Vjn/n7b/7sQ/+6Y4LLrzs8su11lVdlOWIiMBOkOrkHec4PGYAQlH85nN4nEuwRsFqBH99PAtFUb/fDwkOZv7MRz96+VVX/fmHP1T0V7ud1rnd2auvu+6mD7w/kdrUzUw7tmHyoLFVZtqokdpsTadP73YGT25jB63dtlB7eXl5fn5eSllVVdM0nU7nOxrUbdU0+ONhC2Btba3dbgeVX1lZ0Vp3Oh1r7dGjR9M07Xa72/3AdoMfmJEx1cjJaURKTc9o83QSDp8qLgAHZoIFF0195q7Td51z7m1f/NLR9fW68S++7qWD1fXnvehFo2KwtLR09Oiy9zbSmj3FKnaOA1h4GmXE9nXljzep67rVajnniqKI4zjLMmttURTBvh48eLDb7f793/99p9O56aabWnm60Ep/4tWv+tptn3/gsX0zrbyp6plOXhVVniZjv1QAYD8hf5/mU76jHQ1it3GWtjNb+/btO+OMM5h5//79S0tLURStr68LITqdzkl+ZVsVnsbhANR1PTs7q5RaX18HEEXRVIN37tzZ7Xb7/f523xMax5/4UkqEl9ZSaxlFKryYAx4CYSfsew8hQvtXSKJAY6NISBLONLNZ9ofvevehQ4fe/va3h3Xurbfeirr41KduSfP84UcfzfN8bm6uaZq1lSPhosKkE3I2TdNMKUYe/zLmirQ2eCxFUTRNk+d5nuerq6vnnXfe7bff7g4e/OhHP5rn+Y7Fpfe990++9rnP/sa/+a0d811v3eJsbqtmppWQnw6GB2+kqzfJMeO1nchtZLvjzzjjjNXVVe/9rl27jDHM3O12T66jOIlvGpz06SIpiqIvfvGLH/zgB9/xjndUVXXppZcGn300GmVZFsfxlFHjBKEt1VQIml789E3vmTxNSbM2kxOFKvGgrJt3Yq3XBoMrn/ykw0fX3v07v/PEZz5z93nnrg8GP/H613/wd3/3oTvvvOKHnlUVo/379u1YWJBSrq/1vefprTxu6n/8y7hohDmOYyI6cuRIURRzc3Pr6+tZlt1yyy3VgQMf/vSnrbVnnXXmJ//6E7/1sz/XXVo8sG//7rN3n3vW2YmWo/4oTWIBEkSCACJBgsYEVnRcA3kAJ4d7iG2c0+30wVpb13We53ffffdb3/rW9773vUVRXHHFFSe//99h0jfGaK3ruh6NRm9+85vvvffe+fn5Xq937bXX/vzP//zc3Nzq6mpwTLfjBRBya+MfVtbHLfMBaNqIGEwRg5t2Ng5mggO3Oq2HH33EQf7vP/8Ld3z2swA+cceXZRylad5Y+4of/ZHh/fef/wPPuPyyywbr60Tizm/cPTs7Pz8/HxaIzrmwLvznMumHpW2oHtZaHzp0aG1tbW5urtVqff6Tn6R2+5Of/GSWZVEUfe1rX/vZl1935gUX3P/NL//ym978R//3f/3Lj/zFD/3gVYnSeZ4OegMANCm5YkGAD5jJ6W9tdk+3UyPTVFu+v92S6NChQ3v27PniF7/41re+td1ud7vd5eXl66677g1veMNJrnpbNQ13ZHV1dXFxEcD999//0z/90+eff37TNCHw4ZwLT3CWZSsrK9vZ+VGx9WUc55KGHQLcmKhvTKEb+jYCXFQVwG7jPQYTEyBFu9vZ+9DDF1186X//0E2v+5mf+fKnPvXBv/vU3MJSu9upbf3rv/7rd3zylqULLzj77LMfe+QxU7qlhR07d+5MkqRpmqqqiEjHkSSxCT+1sfd4S1557+fnZ9fX+73e2uz8nDFm7969Rw4vm8ceu+iHnn3zzTc/9uijaZo++vBDP/nDL5458/SvfP42NNXZZ572n//j23/rLW+59JJLtNS9tdU8zTBZOY25M4mZoHU8jqh+d0uoPNvaPG2nD2maLi8vLywsKKUCe9Tq6uru3btvuOGGk1z1ydQ0uEHBpq6url533XVnn312nucPP/zwpZdeevXVVwshnHOdTieAQrb8klBxG6Ja01Blv98PEdkTRDgXVFEweZ7Wp8Jb6ydU+htbTxCkVaRX1/sv+OEX5t2WJTz3+S/85hf+4fc/dNOzr7l6//Khmfm5P/vwh9/xq7+CuTnE2TOe+PRO2m61Wtba/qgQQkRR5Ly3jbXeBeMqVQTAOWe8i9PolHIzp1p7vd19C/NjiKsQUZh8tFZKicZUjXFxohtjDhw48PC378bykdf86pt/5Y2/dGjfvtN27PzW17/x+le9CpAPPfjAfJ6apm5nuTHmlltucc60807dlMEe45j4KAEwZms3fWFhIazVmDkwlFRVBWBKxhaW7a1Wi4jW1tZardaW3xOi78vLyx/+8IdDx8oHH3zwFa94xW/+5m+e5C5tq6aj0Shw/BVFEU7rne9856c//ekjR47s3r37ta997Qtf+EIA3zHitb6+3ul0NqgymIuimLIHniinartGQxulSkgUNYqq6nSTr92z9zd+6y2f/9Str/vlX/qpN/zMoCqSLE3S9J3vfOdf/Nc/RDZ7wXkXzszMQIrZ2Xmp1Gg0AiCEJCmk0Cxok1ftrD+1sP+pBra2m0wDi0nw8JRSYdkKsCe/1l+t67rX7x9cPlgfOPCsl7z4+uuvP21px4FHHjvztJ0fv/kvf/v/vP6ypz/j0397axppU5ZZHGktARRFFRbg1to0PaE1SDif7a8rnGoAChJRsD5FUXjv5+bmwmGDwWAbAzSWaezp93//92+++eayLC+77LJf+7Vf27Nnz8nu0smtaQA0TONN3/rWt5RSMzMzO3fuBFBVlTEmiiLv/Xa+qfd+ZWVlZmYm2OYsy8qytNZu97RVtTnRYeVxe64TRThGVTUkhQdarejRA8u7di0d7g/+89ve9u7/8jtnP+2pN/7JH6dZtj7oLywsPPrQo2/7T2//yqc/h6KYvfDChfml9kx3bm6BgaZpoiiKopgFOcseLISIpeK6PpEE4yTyvVLTcMnM3DRNUJGyLHv9fq/o94r+ygN7UYyu/NEfff3rX3/ppZesrqzsnJ8vR6Prf+mXv/r5L7zxjb/422/9t2ygFVxt8kRb60ejUbfbBuAcS0nGuOPOYXwmvLWPPjVGgfRq83Awc13Xg8FgcXExXH5d15tJTY673uFw2Gq11tbWHnjgASHErl27gjqd7C6d5Lb2er0sy8IJPfTQQ7t378ZkaVVVVVVVcRyHeHJYvm35JVmWbR6JaTwo2LAtjj/B0J583IvKpqnqDxtrbauTHVpeifJUaV17e/sdd/zr/+MNg0cf+Te/93uvec1rDh4+FEWJULF1fPPNN7/nPe8p9x+ElBCK5mZPO+00IQQJObajgpRSsRDCOflPgQKo6zpoRlVVZVmWZTno9zHqo5Mv7tz5I6942Ytf/OKFhYW1tbU0S2a7Mx+9+c///Vt+C8MRPG547x//q594lQb6vdFMNw9O4mAwarXy9fVeIABMkrEaHfeYbGdNrbUhfgSAiOI4FkI0TTMcDufm5qa2dirbjW+e56PRSEo5RrExE1Gv1ztJ6B0nX+lvDtPUdR1oXZVSxxnCoiiIKOjribK6ujo3N7e8vKy1np2dbZqmaRqt9XZP2xQDcNwaa5ushjDOKxV5sFJUG58kgoEjvWGW5/c/9OAvvPEX13u9B779bRSjt91449Of+SxDdHR9fWnnjna7fd9999+3d+8DDzz0jW9841tfvgNNg7KBNaHpwHgAjTk16OqpBra2ewrzHGUJ56A1lpbOOf/8yy677IJzzn3KZZededrOubm54XC4urZy5pln3nrrrW/5jd+s9j36rBe+6K8/cvO7b/zjN//iG//4ve+77iUv6razpjKj0WBhYTwpl2WdprH3Y6ax4xxTbJ9VCkuUgNw4LmkUvFIhRJZlRVGEne0ut9frdTqdgDkMP3pyLr7x6X3HSWrqm4bglDEm4MCDEk+dp+2gG+EjAQlw8OBBKeXS0hImAakTRU1mk2Nr+7abTIkkqopJkvecxLT/0KqOo/nZ1mq/OP/88/dc9ISPffzjX/7yl9/0pjfte+yxxTN2/dQv/OILX3bd4o6lxx57jJmyLDPWCqE6szNlWY6GZeglCZD33ngr9TENMr9v27qqGEiTpN3pKCmrumbvEyEW4nR534EQULvppg/eeOONy/v3z83PvfuGd131g89MlKiL5l1/8Ef/4d/9uw+870+e/4JrO3nS6w2SJJFShkc9SaKmsZs5xbHp4RLbPGUh+R4C5GHWjqIoeEphil9fX5+ZmQnvDAaD7ZzAMDl775umCceUZVnX9czMzNY/HE7vJGo6Go3SNA3PTVmW/X5/dnY2iqLN8JbgPFlrt1sVhbReu93+5je/+YEPfCDP86uuuuqaa67Z7kcbM+7zFP6c7mzjw4l9Bw6ec87p1uLQocOnn77DMaTAPXsffMYznvG6173uda973RVPvLRxbIz5+te//qu/+ZavfelLUOLi5zznla985RMuunh2drbV7Uipw/PtpyRCTN57673M9HdPlOkJEvRdHhm25HnL9xWJyjTkOUqTVpqxIFs3tqju/eId1Xrvs5/+zN/82Z8hTa942tOu/5U3/ciLX7DWK9qtzFR1O4uLQfFffuftb3vb2959wx/92I/9WLudAqiqJqzEA85mMxv/Mfd2G9906oyGhZ3Wen19/TOf+czHPvaxSy+99BWveMW5555bliWANE2Dym75Pf1+PxTDBKsXEF7fkf7jZGoakk9hog9IlH6/n+d5KGDAptXfSSR88I477rj++uu992maHjhw4H3ve9/Tnva0LY/ffDabDep2v+MCD3Vdt1rxYFDFcXzgwIFnPOMZT3/602+88cYdO+ZWVwezs+3RqK7rujPfue/g8l984hM33XTT3m9+E8MhSHTPO+9JT3nyFVc8OU3TVqul41T8v+2df2xc1ZXHz7vv18x7MxN77GGSOK1DtKXBXS27hIig1apS6y0pEfsHWiFF6qKqaop2VaWCsN1UBFRrN80fuwIlsEqVlhRppUK2hSgsLHS1Qkhk1X9Ki6A/qIGQGOx67PGMZ+b9fvdH/ziTqbHfNQy1s37kfTQa2TdP129evnPuveeecy4hQgFFUYSiRCwUH6J8e++dKNqHvBLfOYPE9nzO5oJGIQ1Cr7XYeevtyf87/9PWa6+BogIDoJQUi6+++urISBXP8sCdD1ODTtsbKFmUwuFv/tNjj33/kUeO33HHHYWC5fuhqqqGoeEB7L1nu/zBSvSAJRCWenXOnDlz+PDhsbGxd9999/rrrz9z5ozv+/l8vl6vl8vlVUJJet4AnDx8GBV98KD/R4IjwsmTJ8+dO6coCsZVhWE4NDQESVYzxsO6V7TjtyWKIsxEw0bDMMIwxnlIGIblcrler09OTt58881nz55VVYUxEUWRbZuNRptzrufzImdGXJw/f/5vv/jFA/fcQ4j28ssv//rVX0CMif0C8JDAbjowAGdYCmP5sNw9amJFu4Dkdtn1snfsR9MBBFAGOfOGm3bfcsuePx0bGx8fn3nv3dv27h0fH3/89A8Klup5VBGCsbhgWZoGgRdZltHp+CdPnnzwwSPXXnvt6Oiopmme5+FjVFXVsiyMW0VHTRAE6MVcZaWPaYClUsm27Vqt1m63y+UyhrpOT0+fPn16165dAOC6Lud8dbdUv6x7dUUhBK7jcBaby+Uajcbu3bt37twJK9ZJsGRzdZlS8ZunKIrruvhkMelH101ceDYaDcMwdF3P5/P79u1jMdVVvd1xSqXi3OxCtTrkuqHjuoO2+dSTPzrw5S9/84EHJx48XKu3jz7wQD5H3nrnd73z3gGAAYYLcZ0LrJ0klPe90yhe1oLvGNa9sp3FNLEdty9WtuuqFsaRIsAq2AXL1gzd0HTFIEYO5uvujX/+Z7/+5a92bB25KwjOnv3PkqUBB0L06em5cnnQsoxmszM4WDx06F7T1CmlvR12nK3hnott2zizRKe9ruu6rstOSsFn2+l00KGuKMobb7zx+uuvDw0NocMR418VRVnFKf6RWXdrKoTgnM/Pzx84cODtt9+uVCphGD733HNoTZdedvmOpPbfcTxVVT3PQ+eFppF227FythDCMMiSy4JCIRfHotVqDQ8P+H4cBEGxWAzD0LbNx37wH/ccOnT//fffe+83arXG4FDZNGBqar5arXRrBeP9XF7c84hhlHtfM87EqiSJ7YKyxHZD1UBVVABBQCcgCMQBdHzPHrDCmGuEAIe52Znr/uRTt47/9ZNnfjhQshwnLBRMAGh1PM5pYVOJXC64FASRruuquvzZRhFFP6hpmqpKOBfaimt6/0GKooRhiDM3AHjiiSeOHj1aKBRM09y7dy9uI+FyuecTWCuuhEx7M4/z58/Pz8/v27dv6Sxn+eY+kKXtvR9MU0e/NABQypvN5uDgIGMsZ+iLi46uaVEcm6aJg53v+7Zt27bpuiEQxc4bi223ULCPHz9x36H7vnP0O9/61n3vvVfbtq3aaHqqqlqWGTEAAMF7kdd/KA8MkLjESV4qAUteEuWN5OtZlCxrYMK0FBUg5hB6jApuqBrRlXpjcXN1AAQ0605luDD5mwuf+czOv9l3+9NPP6Xq4PtxFEWlAZsDeH6Qz+dYRNG3aBi6ogC/XNts2dQxDGM8Y0Qm015mCHqy0PkzPT394osvDgwM7Nmzp1Kp4E4EegPWtijiussUAFzXRVdIb7NgFXjX/dT9tXd7qqr4fhjHMa7JGGODg5tQRWEQmZruhQGltLSp2C3+B9BstlRVtYqFxYVGebj8yKP/fuTIkX879q9fO/BV1/UKRSsIqOd55eFSFIk4wgK13eJrQggAwgjkbMKWRRIAcADGkuVlkhWRB9At25bYziX9KFwwEJpCVBU0PO2QgRAipykqAAHwPeo5bskuNOvzf3HDDbt23fjjs08XivmLl6ZGtm3jChC1exoJCjKKKOd8qU11HA9zUEulriOcMak19X2fc44Duuu6QRDgKN8b4lutVj6fxzX3mhfuXHeZ4k2jTcWz1WzbXmXX4X2RpktuLQzDXM7kvGtQhYAwjPI5Iw6pTlRQFQDwHY+BAKJQSgVAaaAkADodp1Qs/MuxYxMTEw8//PBX/+4ruB+Ry+UY46UB69KlmeqWLYyhUe8GRDEQRBBGuGIkF3qShZj0e1qfrB9NI5Ti4lpVCXA8wwAgp4Lnx4RDwdIV0T1+9lev/ebzn//cyCc/8dRTPxrdMTo1PTNUGTYMw/O8omURAEp5EASapuVyBgCEYSyEwJ97YxQARBE19GSFoR1FY9lrxEUYlj7uhaQ4joOT176ew+qsu0wxUxkDYbZv304IwX1XnNHjNUvvQSHd44SX/VO9Xq9WK4wJnB4VClaz2RrYtAlFwSMqAAghVHBV1/D04cWOo6qqZeVPPProofsOnX788TvvvFP4kW3nAaDddmy74IWhbZmXw1gBuqetdJcyAMBikZgzLTMYsrhVmXxX2dM3dAUAoljghM80CAdoOWGxYDYbTqVcUAFCnykCzJx66cLUp8eu/8IXxr/7vVOVzVVFgUhQohCFgaAMI90MA13dEIYRXLYgKFYsDauqiixT1PO8pbuPURRh1NvS+w/DkDGGGXmJnXx0VoRXrz2u6+IPzWYTF5WO4yy9oJfeyRjjQjDefVHWfcWUMy5+8j//+8nRay27eO+hf4wp50JQyqMgFkyIiAsmBBehH/l+iJ00O04sxMSxY/bg4KOnTvlCOFHkhnSh0Y6FoELEXCx2AirE/KITMIEvnwqXCicWTiy8WMSxoEmvwGeJr8SLaSxcJ0p8yfpZqLfjSHAmPDf2PSq4EFy02n4oRCukDS9cdEM/YJ4bCSbai67T9j0nzOftG3ftpkL4jDUDtxP6VIiY8jCilIkoZp4fhhHF5/P3//B1hWh7bvnL/37+J1zgX5CC1sH3fbSgQRB0Oh0hBLoIsXFhYQEvnpubW1sJXYm56ZrQbrd37tw5Njamquqbb7559913Hzx4MI5jHKyXgr+HYbh58zUTE/88MfHtH589e/vtt6tEAQAaCRDLDRhXQPYY9OV1X7swWQECCapks1zWj8zKEv0P7d0UUAGgAKXUMLTfTr512223bdmy5dyz/2UYRqvVsvNm4rlNR44cef7550dGRoIgaDQar7zySrFYxFHouHoAAAQpSURBVF3Qvj7XlSE1Mn322WcPHjyIWayFQuHSpUuTk5MAsHrhli1btx47duyuu74EANPTv6tWt3BJLonsMcjO7fl/kqnQNOnnbTabQ0ODP/vZz8fHxwkhvu+HQSCr8rJjx45rrrnGtm3Hcd55551z587t2bOnF7+x0UjH4UkAcN111+VyuW3btl28eLFWq916663PPPNMFEWenxxAWC6Xa7UapfSzn/2rmZnZrVs3Y/y5qiafJrzRvq39LkEIAU3ToojedNONL7300sWLF9FDlDP1pR32uj1+/PiFCxdqtdrw8PDo6OjIyMjs7Gy1Wl3bT7FWpMaaAsCJEydOnToFAJZlvfDCC+VyeWFhofz+bYIelHJNI7iMDcNYVdUoigjR+pUpkSwG+h6sJaFHSZmcq/QjVrroEdd1i0U7CKJarTY6+ok4Zhixj0uilSEmU1NT+/fvn52d7XQ6Dz300P79+zfy8S+pkSlmptfr9Xq9vn379mKxiIEOUZw8imNEmRDC9/1Nm4pBEHHO8/kcY8mJLLLHIDuJVyZT+Yo+uR/Z85fLPbmfXm0vTSPNZsu27TiOc7lcb49+2fQUE6lnZmYGBgawJgU2rsdW5x9PamQKAHj4k23bc3NzGLTq+75uJMc1YowFIcB519LEMZuZmR0ZGflYypQQmJp6r1Kp5HKm7wdWL+FTEgnZc8IvLCwMDQ1t2FkpkhqZYh4j5stu3rxZCKEoShAEpiT8FgAajUVd14tFGwCCICKEGIYmS8eXJYRKAwjXWaaySYKsH0zqKBbtWm2+Wq04jmeaJqXUkqTmoaMH7xY12ssj2oCkRqbI/Px8pVLxfR/nmoVCQbbg9n0f3fidjlss2mEYE0J0XZXJtN/HIJOpbEXfLzI5yr82TNdVLI+FNY44F4QoNE5OJvE8r1QqicvlQXGAwo3oNbn/tSVlMl2JTKayzyWzmrKlSb/FUGSDslxeybtc/W66yqyvLGkkXaTGIbVW9OvoWe/SUgp65zNW5aqT6UYkMXNVOpndoHXo15XUy1Ru7WQhHet2K2uK3Opfjab3YytTqYNJWrqsv5X1WqEoyrr/jfSTepnK6NfK9t9PMv1aa5lM01Jv9crwsZVpalBkZwAl1yVY35vZqFylHzvFbLB6q1eG1PtN+6Xf+qOKZLdUFjIiQ+LXFP1ull6dk4Fs0P9AZHLst05fNnB9dLJnl5ECrjprulaD5kbr5+NNJtMPYL3n7qtklq7r300XV51M14rMCl5JsrlpRgrIZJqRAq46v2lGGsmsaUYKyGSakQIymWakgEymGSkgk2lGCshkmpECMplmpIBMphkpIJNpRgrIZJqRAjKZZqSATKYZKSCTaUYKyGSakQIymWakgEymGSkgk2lGCshkmpECMplmpIBMphkpIJNpRgrIZJqRAn4P/BqdgVe7VmcAAAAASUVORK5CYII=;" parent="1" vertex="1">
                    <mxGeometry x="-607.29" y="-220" width="107.42" height="106" as="geometry"/>
                </mxCell>
                <mxCell id="76" value="" style="shape=image;verticalLabelPosition=bottom;labelBackgroundColor=default;verticalAlign=top;aspect=fixed;imageAspect=0;image=data:image/png,iVBORw0KGgoAAAANSUhEUgAAASsAAACoCAIAAAA3lV8hAAAecUlEQVR4nO2de3xc1XXv1977nDnz1mNGo7cl/BKShQ1+QO1gYmgIadrcCyk3lDRN6CeUFhJub5N+KAlN+DQXaG5TLklIP07g47oUMBCgDkmAhJcBY8A8bGNLBsm2LGPrYUmj50jzOGef3T/OaKzHPM6M5iWxvn9aM2eOz57f7LX23uu3iFzXCgiCFAha6BtAkE80qEAEKSSoQAQpJKhABCkkqEAEKSSoQAQpJKhABCkkqEAEKSSoQAQpJKhABCkkqEAEKSSoQAQpJKhABCkkqEAEKSSoQAQpJKjApYDQA4W+BSRDUIGLG6EHQPcrvq+A7kcdLkYYc/sKfQ9IRogIj3xorbrJteYhpeoLSuVXhDoeGd1NWSkQVuibQ8yCClyM6LraJznWu9futtZeD9QCukYkm1LxOcV7HZ/qUideopIXgBT6PpHUEPSJWWTofqAe56p/tfiuAsGFrs38I6ESEEaG3hg5+QNt8n0qV2GiUeSgAhcNQg/oarej8V5bwzcIleZobyaGDsP9v5o8/g8gJoB68nmfSFqgAhcDIsIjnbaa2+yN36LWSsHDZt5EmCJ4ONT7WODYX1K5kVBnrm8TyQDMA4ucOCmf2bcKDgBy6UZb9c1CC0VGnsJFmiIE58AiRh8HYnWu/mnclC8NCCHUok18ONV1T2TkOSrXZPUukQWBCixKRIRHOqMpH1NMhp3JiS3S+D/6OhDLwi+IZAWp0DeAzEZEeKSTld7o2fi6kfJlRX5AiBBcnTg9EYgQgoNeROBgFA+6rvZLjg2e83cI76VCj2RHewCESnp4aKTvMNc1xpSsXBPJFqjA4kAfB1Bd5+9Qqq4WgmdRe0LX/Kf2ch5kVGIUh7vowCEpNNGU70e2xv9NqCVb2gNCACBw9tDU5ABqr5jBgSkgOg8fVTxfKW3KasoHQKgUmTg94T/GdQ21V+Tg8BQEXVf7qbLKt3ZvLlK+4f52zsM49S0KcITyjdADBPSsp3xACAiBYeeiA8cpv4iIrfbWLO7yAQAQQgiLTJweHfwQtbfowNHKJ3p9w7bVW289cEKfioRt2TgfNifszMIVkfyCY5ZHhAYAdZW02ks7Tk7t77F45MwvZuw0YNi52MFhyzuEAfCWlfam82B/Oz89JtKeDDHsXELg4BUGzgEAtqxl4wGx/2h4OCyZ1GE07DQOuKD2Fj9YQF1IOAeHjVx5sfVTqykABHmyFxMqAUDg7KGhngMAgPJbGuAoFh7Ooa5KrvbyjpNTR/oscSZDQgAAw84lCY5lUcA1DgAtK+31vokj3faZyeGsc9VZ0B5GPcUFKrCI4BzsDteWtTAzOczmaieROQ9KQsP6wOIBfxGLjlhy2FI2MHBiTzg4nA3tMSCMjL8o9WJ5bnGBc2CRwjnYLWoWLkQYgAThDuLfDtyPvmnFBipwSUMUUPuk8V186l2gZUDdhb4hZC6owCWKkfKN/VIf/y8uV+HUV7SgApcchAFQMvmONLJDiAg6oxU5qMClBZEhfIwM7wCtD6ib4KJL0YMKXEJow2T0aQi9gSnfIgJ3I/IIkTQtZFhZZx2XZ5WrpBTU43q2yg6RvICu9fmEjAx19Ha9UVG9zlFSKXSR5KVMYiP+ke4eP2XJfiW5rtns3pKaTUxxS84mW92NzHa+6v81iDAQNCZcBKAC8wqTlGBwqP3VfwpMRbw1m6x2eyIdUkqTK5DrGqWKt+EyxVUDQgcAEByELrlbrXW3gE7D/kcItWMqWOSgAnOC2jeuWyiT4lYcEWb3Dfa+177nu8zi9dVvYhKbr8MkCuS6RqnsqVnn8DSD0KPyiyE4AFg8W23VN2NX3eIHFZh91L7x7Q/cxcPBzv1HmNsR9zVMUpjde7rr1fb3dpR7msp8K+eIMJECua6VVjQ7K9YQZpurvZkIHuuqq40f4sF2whzYVbcIwZWYnCCE2LCu9bGnHqgpc6t94wleRWXFDQAvPP6l3/7HF0cHO1jSiYrrmmIrr2i8wuKqByFAJEsjozfBw5JzdcmGZypanwHq0tVegMSiRQoB7kbkBELI3XfeB8y6/YG7AODm2++G4aBcHXeHgMrOWr+/Y/f9a1Zv/s5Fl93mKik1ipViaGFNsjq8tWup4hW6llYbM6FrABp4Ly33vh3tqksk/OUtHnAkcgazytXum2/6xx/++OePbf9/d3z/ZvXMgBpOdNiayp7WziOPPvHj5R/s/dnMyVALa9dc1fCZbZtDtDTjFoKCh4UeUaqudq79vWEYhRQJqMDcIle7T/X7r7/2pvc/aHvsqQdu/vOrk+hQVtyy3fXu87c+/ZuXzvSrAOBwV7DGK5rqVpWyVDFnUgiVRGTE3/3KhP8YYPeyYgIVmHNkRZbrfL/b+971194EAI899cDntm6Mo0MR4eE2a+3f+v44ZPFdta9Tb/fXOSsvXOCnEyoBIVF3GcFxUbTYQAXmCdkiWKW2/dHHrr/2JmORpqHKE12kEREebgP7ZZ4t/fbl3wIAwcM2BiBE5p2rwWheLUUmTg+efDk7Zb5IDsBRyQPRHkn25d8N9e4Kwl1333kfVJRt/+EdAHDzt/9WKd+Yo66d6KVd/ODY5BjdD9Iyo0cSCO5s+r/Wmi9Pdd0T9j9y89e/2nDBlnvva/v20x5hl7LbtRO9tBcLODw5g38MerWt8R5b/Q0CYFpgmuRc7V73MBn668nxd4IN3/j20+CzwoKizRjopb0IwUHKATwkhIAVt5W2fstozTnzj9ENOs9mu/dSwcM+a4qL2Sm8/lFodEpJbqqNXtqLFByq7KLz8FGoulYu+xNovo7IMEd+NkkbDksAYAMNwNS8Z2NwpM9iS7wbgWHnogZHK3vofmBVvrV7+22bgDGAOHWADqt8xQaWbsOWhK/EZvGLHxyzLCD0gODjjhX32ur+QhAGk8nWVBjLpGHLfLBZ/NIAR25hiAiPdNpqbrM3xlK+1LFlzJP3zFn9wAk9yBPPcvEwwk7/qb2cB3HqW+zg4GWMrqv9sutS97pfSa7mDLbyOD/XzfNInwWSRJsxsFn8kgOHMCN0P1CPu2WXxXcVCJ7xVp7RRdBUN0/caVii4ECmh9ADutrtXLXTWvtlQlhWttFTdvPEAy5LGBxO08xL+URWy3ziJ4fZX+3EES8ucDxMoau9C0n5zDMnOZRCvSnDTm2YSx5LahNEwgAkMvk2YPeyYgJrI1Khj4OIuFt2lWx4RnKuFjyc2h5iYUSTw1WujZU9I/0fJdNeWLtuS+mTP231Oi3acPIW2Aqog2zwLhj+t/nyE3oAdH8Wbh1JH3RqSojQA3qk077s+67WnZKrSfBwMmekGVACvQPh0Skmz/t9s1tIfSU1I2Ghi9GRseR+oVSiHxwPPPnywM7vNV3YTF56ZUKnOpVmv57IXI+w0SfE0L8CCCCzT8GJCI98aF/2PWvNX0WGfwf6MBC7mf8jki1QgfHh4TbqvrZ8/XOWiitB8LSMrmUKPeNs/qpmkEOJ1awCASClAgGASpRK9In/Oit0+v/vaJI0/sEHk9QuAwggDIhExl+kQ/eA1kNY6WyvNJ2H26nrGuP/yBwrrbU3ElYZGXoaCEGX0byBUWg8iOxbu1dv+RmxlGWW8s2XH6GSjUFw8GAuqtSlcrbn6MQXbznSWGs7F5SGT5C+22HsEaDu2ZGnrqu91FLrW7u3fP2Dxv/R+G/a6m8o/4Ojiu8rPNwGIpL1+0Tmg3PgfHSXq+p//tntihbqGWeagPnBZHoQAoRMDhweG2wrddqWL69L7lcfw8wcGIMySm30tYOju/dN7vjOeRtXHnvhP76mW5xMnh1V6uMgIs6m7c6mu8FWK/Q5ThmGy+iVivc6PtWlTryEbr+5BufABBDWstJ+7RapvoT4F9BMmlBJDfTmySeCMEmRlNCz/+vz9Xte+81jT/3KMKSJ/jXqQ3Nr2ZZOpepqwcPxixKnXUbd6x72rd1LlQZd7c3tbX+yQQUmJLZR/qcbmE3Sgmm2PCJUEuqo/9RrxnZCLu5wLuET+snPRgYfl+taDWMow5AGQFfPtEmui0s2nrQv/3uAuTVT8xG6JnhYeDaXbnrB3bILQMfF0hyB+4EpyOQUdeLTm8GQOjE2Ot+Td0F3qGt2h89R0UrYlcTTPHLyB9rk+7JSA3W+u3+wXa5U//On27sGlt3x64silrAnnbTWKCa2+K4q8x4M9eyaPPFtwtyEOrN15whgHhgPoSju5g1/MTNbEwJK3VJTPaFqqGc8zjZDFEIIldRAz3DvuzoPUzL3dVMR7UjbxyI8VVXji9uwJYaZ7mWxFi5KyXIQOggOjgZr7deYtUkd/r2unZVcxNZ4z66OayyWyvtuBP8wtA0Ie7ppneAAIJdutFbdILQQD+zDHYssQuS61kLfQ7Ghu1y1X7zphbjTFGPAefxT1MbpzRETpzc1lUsy27p+xYqm5QAQ/4MkdqKja8/+TklOqBiXZ5XFVS8En3NIgDBF8HBk8Hm5dLNxgC7IYSKoPPg32tNviX2demZFiYRKQJi/40EycBf26M0WGIWmR9xT1IRKQnDzpzcNUe15q+PDY73rL1xVU1eZVlB6LuykUtzVFCPNiy63GNsMDKaU8IuHmduRUfuk6cqMCf+xTN6OJAYVmAmzksMukVnRkKRIQxPB5146cF5d+cWbmswkh1zXGLNVNF5maC+5w9r85RaHjUwG0z5SN8sDimFf3iyDa6GZwznUVckbl40kP72ZHEmRTvaOPLH7rff3fwAACZp+Atc1IKy0otnTsBUIyY67YSoIlQAg6ngPgIVRuQCf6YKIzlrmdtgTIckMiHzoeG/bO3df/tmbljV9ZuZkyHUNAMp9jcy+fCHa88jwyvshALAxE4OOBcH5Ap9soSEMAMj4i9LYTiCuFx66smHllvV/9KCnqsn4u93hu/VP13b3i2c/FEk8C80Q1EwNN1qP5hN8voWDMAAJwh3Ev13wEUI9oPtlT+u49/u/7ljRNMBdVK5YdtEwlObvjsxZj3L1Y2ZZjUWGWQEVWCCIAmqfNL6LT70LtAwAeLjNuWqnteZ6QiWPrg0FxGnus1kIRHJbjjh9P+aK8QVXStZba45Odt6uTrxB5SpcSlgg+PjyDpG5rpHhh0XPLTx0HIiLh48qFV/ybOm31d8AcK6HhNHAbM67Mzgfl/qOqKQGeodPvWbIL+XrJVdzyYZn3C27gCig+7E3/ULAOTAB6RQEpgUZf1EaewSIlco16ZpfBDmsX2FxO8gC3X7P3UzUA+rD9KxHBRe6ZvFdVV7xmeCZh4PddwIA7tFnBs6B86ETE33+/o5EGwOZwXVNsZWXL7vMU/NH1NrEI50Zm1+4neTKi62fWk0BIPP5cDrsHOo5AELNYMXFqK6w1d9QtqXTWnsrlhRmBiowPrvvX/PKk389NTmxcB0aW3ne2vVGS2qj4KCk9Xdlmw9bfFclrBKawdkwHeXnzrJwHjV0+uNLpAuqI2mLMHp4tXew+5WF10wZ87Z9+d97tvSD/TLUYbrgyez4MLvPP9Devue7zOL11W9Kcop6MjB1rKtvrjvLDEq8TS7fWmCKYTMT1HQJuORcGT1LnQo7g7e79f5hYWOgCVjmIS47gekMsdIrL/OQwCT4g6YqiQmVRGR4uOfdYKA/M+1Jss3irJprmSM4kWz2mmsU73Xa+CEebCfMMdsUA4kPKjAhTFKY3Xe6a0/7u78o9zSX+VbGFWFcBWoqF0S32b0lNZuY4o59X71OckED7RoSqq6bL723s6i6ZirQQAiwyKShmi7zkLN+dUKlSeo2AGBy4PCY/zglZH7dhkniKzB6N5wpFdaaL0v2CyOjbwLvB2JFHSYHFZgCJilAyLEDO7s7X66q2+Rwe+fka/MVqKn8oqZq7t6kuGrmfFPtFrJmBWuuoxPj4vQkpFsoNF+BBoYOV9ZLpVboGxFBPns+nK6ZGus/yLVgxtozSKZAAGNil1xNtvobqbJCHd0HoKEIk4B5oBmo7KydmOjZ/S9rXv/t9yaDgiVQjpHysWWX3/JnawZCyXpTZ1x6n4S4ySGhkoiMGKX6WfukVBjrusR+IVg3QFadxZceuBthCqNDoHvLztHy658/yC+ojjSdZzdqBQEAKAEArmulFc2ys2bARP3BnOqKoJZGQ8/klwWAlpX2uirR1qWfHhP6YNYc741DavbSOpEkfZ15oJTZcO5LCSowFfPaRRhtpY8PaOtX0LrKaBCh2MqTFOwlwpi16irh6HETDcwIARAAwCSWvI7JkPeWtey3z741FAxm5Wxn7PcFIM45gegNYoeZ9MHHlISEHQINnezr1MtPRarskYplF1HFm7JgLy5zGph1jAiPPO9FsQLZ/o/Clau5t8HUpbPkMpiyIBiwl/0CwCeVAN0PtCx5h0Abg6AmHR3x2SyzioZcMrx4GFzzhZSYWOl9a0C0dekzdThzYsnzkoZRkuutXZvs9wXrmBYGPq+5GB0CHY332hq+QaiU8qTY/NObNgbPH+Rz40lCQIizAyeANAPEjyFj0ePaIf7KMTCSw5kTi8ZzdVYuLqUVzYYPTZKpD8POBYJPbQbzOwRmWg4738TJmCUaK8tTvpdzcFZY/oeXH2nrfedwW/4nlljYmaQgGMPObIEPLorQA5J9bdY7BBrfVP+p19KaJbjGmcTsFlVwks8No7kpX9wVFww7swo+PgAAEJHl518f9t1xJiil5WmbjMS+vWZItNppcziycXPzPs5Myofl8zkAHyIAgBoJlZTWrEvLGDsJs739svtN7evpr6zyZvGCMHunAcPOPIPPcQaE1VWxai83OkhnbGubu8UJSWYHO/qOdA18duvadF1G42JmpyEHveyRc+DTnIXxnW5Zaa/3TRzpts83xk5CfmYJw+33uZcOVHldn97amnELCvNhpzGZY9iZI/CZxoFzsDtcW9bCTGPsZOR9ccJw+31i91vn1ZVv27Yx5SmZmWgqB12U1aTeaZi5hoTyyxH4WBNismtS2osT2fO/MNx+Tz7ywuWbmxpXNJw7p5oAQ3sXNdesalnT1qWfHtPi/7IsbA0JSQt8uCkwjLHjJocZhJ0ne0defvk9kx71ZiBM2N2+987Wtvv5+uWkrpImEqEW1i5vdV9yycVDXOYan9P6YvpyuNOQb/ARp2ZOctgxIryKBAAZfFMlmZ0eHD+5+62Lmmsu3NCaVvQ4965mJ3IgxL5OUX4qckmL4naSmTo0WjV9/jPrr9nqGZykZ3s5xJvh7XLW15Cw9i01qECzxJLD1oDY8/7QyAL2xCRFOtjRd7Cj7/JLVq9oWp6ZCOcfGTPOqT79Pm8qI5esYUa4q6k89ilT2txjpTNn+A/a27IWdhIZhKqEng1PvoQdP5ODCkwPzsHtkups/YMql+TMn16sgdmhjmPbNtV7qltM6jDlkTGPDKfHxOk3tU+tpqri+dxnL6mrkpNc3PhT03n2N/cNkHROk8eHMACJTL4NIzvCIoLySwkqsEAQGUCXI68GOh7Z/fbHyy746ubP/yR5csh1jTFHrHVZEnfDWPGU3dW8/3A31WxJNg+Nev+jx6dcy6+QQn0L2nggMqhn2egOPdQB1E3Q1t4EqMC8E5slRh8GfRxAlctXTzi+/NRB2yW1E7NK76fRwppktaXcu5v1IVSyqkP+7nYtFIaW9UnkN50HWmwMwFlT7qxRA71pd+okMudBafhBCL2h0zJ07zUPKjC/zGgXIUARPGBfdoet4RuEKR4enlV6P11fq4W1a65qCJJV+zp1mzntzVyhNRw05sPYrN3O6HKoEABgcdWXO6onB9tMmdgTGUCPGYED9aTxNBBUYP4wZomxX8Lks5y4uNrHSm8sa7krWgY13WsapkvvL2lRAMDhrgiVtjbV0e5+E47a6ewlvHmYnx4TNhbnsIExxzorL3ToWjIdzuj9BNyP815moAJzD2EAlIy/yMZ2CQDBw5KjNUkZlLGk+fxBXq5UOisbQmFTNYrmDwYYG5uQ3JNmhg7t4aGR+VsUc3o/ofwyBRU4g6x3a4nNEsM7QOsjAECszvN3KFVXJ3K+iGHoEECzU+gaJWdGQwDxFzbMHAwwNh4nw3C4XdvfY4ljRZMAoWvEUuZp+HRk4vTEcBfnYcZs5yZzWoZh5wJBBQIAyIrz0Lv/XuY7f04H6QVBFFD7yOjTEHpDgKKrHzsa77U1fpNQS1rlv4bnBUC8Wg3TYef4hLb/aBjACgD2dPfJhRBCk6cXaQLdD9LhnwvmJqi9bICe2QYEQEtijD0TSmlfz9l+f4CyBN9lIgPoSvj3+sC/AB/h6inqvrZ8/XOWiitB1zKYaWUapydEtAPEmbeDiddLuK5JksSc57/frftVum4Z1ULi2JCpDhNxkaxl1oqtBKx8sg2dsLMCnhuKMW2Mff+a13/7vQy7JhEGRCGT75Ceb4YHfwnUI0Rk3R8e0lt+RhVvFp0vINZ4LHEFsFF362m8YiiQHTvgGLr900AUbNyZFTAKnQOVPa2dRx7tPPDzTVf8oHXzzWkc3SQKqH1z9qO1qbENF7c2DfG3ukLD6oJ7bporljVVd5vBR8cKJtAMO3ugAuMgK25QnO/u/dGhd7Zf/ic/Wbb68hQugTN2GubvR3MOtjJ25cXszFl9X6cOqRYhE36IiWJZrmuMJdu71600kVdiyo+ekW1i6JQ1UIGJoLLiBtBfePxLVQ3bNl91V/yjm4RBtDH1TiCuJAuDxhnoazOywDBTLGvIMonDp53CZFDQUHqhIzqC5hp8psmhsrPW7+/Yff+a1Zu/c9Flt7lKSo0/SBbL7P3o1AuDmVhgmCuWNWO1NL2manoGRnuYvICP1QyzksN1W78JAKAOZrYfHatyCgzxt7rUhBYY5nYa0kr5zGsP63TzBpHrWgt9D4sJNdAjuxp9NX/Y3/3vVPJCquP/aqDnL+8YjPsnJjEQPG5yaMR+cU6izMBI+cqqmqMVulnCzEcDUUjv/wERxoRw4eDPW3rIzloQ4YEzv6ZyzQIvZQSlc5JDs84XhJVWrEputZQu6AhaEPApZwBNOfWZZ05y2Hc2deznddnK6y/uGBGe7O00YNhZKDCKKAo4B1dJ6QWNUyO9H5oRQBabYEfbXHe/YshvoZdD0gQVWCykdx6VMMNn6VOrKQBkpkOTZ2uQnIIPfRFjNMGu9lKTBUfnIAQy8npDsg4++sWNqSbYs4mudmL/o+IAB2ApMLMJdhKb/emzNXs5D+LUVyTgGCwdktns4wGXYgVHYqlhHECtq+RHj0/t77HYKdhlKZvNDElWK50+8eBaaI6RXScOPwnGCZh8wTXOObSstH/1Uqm+hPhP7R0d/DA7lyYKqIOS/17QJ/HLkxXwIeYWWXG//ptbHvnppo87XsqCCInCdY0FnjHzWs6BSazRM6JFQtkxogdQQs+S/r/jwY+yeCbhEw4qMOcYB9leeOjKFx772uhgR4Y6JDIQRsZ/L/V+nYdOmHxTdI9RN+F0mOyj5xb+o/yyCOaB+YHKnta+3vd237/mwivuuWjbbemU3p/z2BZ6gNCy9D98ARXtRIbwMTb+JBrR5wicA/MJlT2th975+c67KzoPPG5qMozlXcM/BtDz2giFyFzXyPCjZOBOPdKDjqA5AhWYb2TFLTtrX//NLQ/d9weRngMskQyjAniY9P8dDx0H6snfYBEGhJHxF6Xev4Gp1/P60Z88MAotDLKzFvSJR39x8bILvrph2z/MssCY4bENxLJAS9zg5GQar55hRC/4CMF5L/fgb1sBobKnta/n7d33r3nvpX8+98/hE6Tvdhh7hFBnwjUP06ajNofD7O1MR7xk4E4QYWz9lx/QsbfQEMbsvt6P9x3a9xOP57ze44+Rsf8EoECsid4QnOonOvXVb2ISE6nWOScDU8dO9ic0F45eUuZ6hI0+QUbuFzwIxIFuvHkDXSqKCDU8LlusZtb6jVde/oV/S2mz333i1J79nUbL3jhML7SK4e2EWHCbIf9gHlhEyIrZvCvmpFhevfHTX/ix+SbYsyDKua4ymPIVCIxCFy+EWdyRyHj7q/8UmIp4azZZ7fb5QenoyFh3j39uFEoU0AbJ8EOpIl4k56ACFzuE2X2Dve+1v/kjxhzzk8O5CiQyEELGXyT+HwIfAerClK+woAKXAkxSmMV5uuvV9nd/Ue5pLvOtjInwnAIJA2Ihk/vJ4D+L0AFCS7HKoRhABS4ZCJMUIOTYgZ293fsrqtc5SioppSP+ke4eP5VsoJ5lwz8RE88DsRCiFPpukSiowCUGYRZ3MDhkJIcNq7eFQtqxk/1s7HEycr/QVSBWDDuLCtyNWLKo4XFQJ2qbvn729FO401C0oAKXNjoIDbVXzOCptKVNNu29kVyACkSQQoIKRJBCggpEkEKCCkSQQoIKRJBCggpEkEKCCkSQQoIKRJBCggpEkEKCCkSQQvLfEwT5mZXkTT0AAAAASUVORK5CYII=;" parent="1" vertex="1">
                    <mxGeometry x="-380" y="-200" width="140.6" height="79" as="geometry"/>
                </mxCell>
                <mxCell id="78" value="" style="endArrow=classic;startArrow=classic;html=1;" parent="1" edge="1">
                    <mxGeometry width="50" height="50" relative="1" as="geometry">
                        <mxPoint x="-720" y="-160" as="sourcePoint"/>
                        <mxPoint x="-620" y="-160" as="targetPoint"/>
                    </mxGeometry>
                </mxCell>
                <mxCell id="79" value="" style="endArrow=classic;startArrow=classic;html=1;" parent="1" edge="1">
                    <mxGeometry width="50" height="50" relative="1" as="geometry">
                        <mxPoint x="-490" y="-161" as="sourcePoint"/>
                        <mxPoint x="-390" y="-161" as="targetPoint"/>
                    </mxGeometry>
                </mxCell>
                <mxCell id="80" value="WebApp" style="text;html=1;align=center;verticalAlign=middle;resizable=0;points=[];autosize=1;strokeColor=none;fillColor=none;" parent="1" vertex="1">
                    <mxGeometry x="-818" y="-114" width="64" height="26" as="geometry"/>
                </mxCell>
                <mxCell id="81" value="API Server" style="text;html=1;align=center;verticalAlign=middle;resizable=0;points=[];autosize=1;strokeColor=none;fillColor=none;" parent="1" vertex="1">
                    <mxGeometry x="-602" y="-114" width="76" height="26" as="geometry"/>
                </mxCell>
                <mxCell id="82" value="Polkadot Blockchain" style="text;html=1;align=center;verticalAlign=middle;resizable=0;points=[];autosize=1;strokeColor=none;fillColor=none;" parent="1" vertex="1">
                    <mxGeometry x="-371.7" y="-114" width="126" height="26" as="geometry"/>
                </mxCell>
                <mxCell id="83" value="KhoaHoc" style="swimlane;fontStyle=0;childLayout=stackLayout;horizontal=1;startSize=30;horizontalStack=0;resizeParent=1;resizeParentMax=0;resizeLast=0;collapsible=1;marginBottom=0;whiteSpace=wrap;html=1;" parent="1" vertex="1">
                    <mxGeometry x="-353" y="-640" width="163" height="150" as="geometry"/>
                </mxCell>
                <mxCell id="84" value="khoa_hoc_id: Varchar(10)" style="text;strokeColor=none;fillColor=none;align=left;verticalAlign=middle;spacingLeft=4;spacingRight=4;overflow=hidden;points=[[0,0.5],[1,0.5]];portConstraint=eastwest;rotatable=0;whiteSpace=wrap;html=1;" parent="83" vertex="1">
                    <mxGeometry y="30" width="163" height="30" as="geometry"/>
                </mxCell>
                <mxCell id="85" value="ten_khoa_hoc: Varchar(50)" style="text;strokeColor=none;fillColor=none;align=left;verticalAlign=middle;spacingLeft=4;spacingRight=4;overflow=hidden;points=[[0,0.5],[1,0.5]];portConstraint=eastwest;rotatable=0;whiteSpace=wrap;html=1;" parent="83" vertex="1">
                    <mxGeometry y="60" width="163" height="30" as="geometry"/>
                </mxCell>
                <mxCell id="86" value="thoigian_batdau: Date" style="text;strokeColor=none;fillColor=none;align=left;verticalAlign=middle;spacingLeft=4;spacingRight=4;overflow=hidden;points=[[0,0.5],[1,0.5]];portConstraint=eastwest;rotatable=0;whiteSpace=wrap;html=1;" parent="83" vertex="1">
                    <mxGeometry y="90" width="163" height="30" as="geometry"/>
                </mxCell>
                <mxCell id="91" value="thoigian_kethuc: Date" style="text;strokeColor=none;fillColor=none;align=left;verticalAlign=middle;spacingLeft=4;spacingRight=4;overflow=hidden;points=[[0,0.5],[1,0.5]];portConstraint=eastwest;rotatable=0;whiteSpace=wrap;html=1;" parent="83" vertex="1">
                    <mxGeometry y="120" width="163" height="30" as="geometry"/>
                </mxCell>
                <mxCell id="87" value="ChuyenNganh" style="swimlane;fontStyle=0;childLayout=stackLayout;horizontal=1;startSize=30;horizontalStack=0;resizeParent=1;resizeParentMax=0;resizeLast=0;collapsible=1;marginBottom=0;whiteSpace=wrap;html=1;" parent="1" vertex="1">
                    <mxGeometry x="-353" y="-474" width="162" height="120" as="geometry"/>
                </mxCell>
                <mxCell id="88" value="nganh_id: Varchar(10)" style="text;strokeColor=none;fillColor=none;align=left;verticalAlign=middle;spacingLeft=4;spacingRight=4;overflow=hidden;points=[[0,0.5],[1,0.5]];portConstraint=eastwest;rotatable=0;whiteSpace=wrap;html=1;" parent="87" vertex="1">
                    <mxGeometry y="30" width="162" height="30" as="geometry"/>
                </mxCell>
                <mxCell id="89" value="ten_nghanh: Varchar(50)" style="text;strokeColor=none;fillColor=none;align=left;verticalAlign=middle;spacingLeft=4;spacingRight=4;overflow=hidden;points=[[0,0.5],[1,0.5]];portConstraint=eastwest;rotatable=0;whiteSpace=wrap;html=1;" parent="87" vertex="1">
                    <mxGeometry y="60" width="162" height="30" as="geometry"/>
                </mxCell>
                <mxCell id="100" value="khoa_id: Varchar(10)" style="text;strokeColor=none;fillColor=none;align=left;verticalAlign=middle;spacingLeft=4;spacingRight=4;overflow=hidden;points=[[0,0.5],[1,0.5]];portConstraint=eastwest;rotatable=0;whiteSpace=wrap;html=1;" parent="87" vertex="1">
                    <mxGeometry y="90" width="162" height="30" as="geometry"/>
                </mxCell>
                <mxCell id="96" value="Khoa" style="swimlane;fontStyle=0;childLayout=stackLayout;horizontal=1;startSize=30;horizontalStack=0;resizeParent=1;resizeParentMax=0;resizeLast=0;collapsible=1;marginBottom=0;whiteSpace=wrap;html=1;" parent="1" vertex="1">
                    <mxGeometry x="-353" y="-797" width="140" height="90" as="geometry"/>
                </mxCell>
                <mxCell id="97" value="khoa_id: Varchar(10)" style="text;strokeColor=none;fillColor=none;align=left;verticalAlign=middle;spacingLeft=4;spacingRight=4;overflow=hidden;points=[[0,0.5],[1,0.5]];portConstraint=eastwest;rotatable=0;whiteSpace=wrap;html=1;" parent="96" vertex="1">
                    <mxGeometry y="30" width="140" height="30" as="geometry"/>
                </mxCell>
                <mxCell id="98" value="ten_khoa: Varchar(50)" style="text;strokeColor=none;fillColor=none;align=left;verticalAlign=middle;spacingLeft=4;spacingRight=4;overflow=hidden;points=[[0,0.5],[1,0.5]];portConstraint=eastwest;rotatable=0;whiteSpace=wrap;html=1;" parent="96" vertex="1">
                    <mxGeometry y="60" width="140" height="30" as="geometry"/>
                </mxCell>
                <mxCell id="109" value="TinhTrang" style="swimlane;fontStyle=0;childLayout=stackLayout;horizontal=1;startSize=30;horizontalStack=0;resizeParent=1;resizeParentMax=0;resizeLast=0;collapsible=1;marginBottom=0;whiteSpace=wrap;html=1;" parent="1" vertex="1">
                    <mxGeometry x="-584.5" y="-474" width="172" height="90" as="geometry"/>
                </mxCell>
                <mxCell id="110" value="tinhtrang_id: Varchar(10)" style="text;strokeColor=none;fillColor=none;align=left;verticalAlign=middle;spacingLeft=4;spacingRight=4;overflow=hidden;points=[[0,0.5],[1,0.5]];portConstraint=eastwest;rotatable=0;whiteSpace=wrap;html=1;" parent="109" vertex="1">
                    <mxGeometry y="30" width="172" height="30" as="geometry"/>
                </mxCell>
                <mxCell id="112" value="ten_tinhtrang: Varchar(50)" style="text;strokeColor=none;fillColor=none;align=left;verticalAlign=middle;spacingLeft=4;spacingRight=4;overflow=hidden;points=[[0,0.5],[1,0.5]];portConstraint=eastwest;rotatable=0;whiteSpace=wrap;html=1;" parent="109" vertex="1">
                    <mxGeometry y="60" width="172" height="30" as="geometry"/>
                </mxCell>
            </root>
        </mxGraphModel>
    </diagram>
</mxfile>